<?xml version="1.0" standalone="no"?><!DOCTYPE svg PUBLIC "-//W3C//DTD SVG 1.1//EN" "http://www.w3.org/Graphics/SVG/1.1/DTD/svg11.dtd"><svg t="1601377470441" class="icon" viewBox="0 0 1025 1024" version="1.1" xmlns="http://www.w3.org/2000/svg" p-id="7772" xmlns:xlink="http://www.w3.org/1999/xlink" width="200.1953125" height="200"><defs><style type="text/css"></style></defs><path d="M1005.310486 338.75968l-320-320c-15.872-15.872-38.87104-22.24128-60.68224-16.85504-11.48928 2.82624-21.77024 8.74496-29.88032 16.85504-7.2704 7.2704-12.73856 16.26112-15.872 26.29632-14.49984 47.0016-39.54688 87.87968-76.63616 124.928-49.54112 49.50016-114.05312 86.99904-182.31296 126.64832-72.43776 41.984-147.29216 85.504-208.65024 146.82112-52.1216 52.18304-87.61344 110.24384-108.42112 177.62304-7.00416 22.75328-0.90112 47.37024 15.872 64.18432l320 320c15.872 15.872 38.87104 22.24128 60.68224 16.85504 11.48928-2.88768 21.77024-8.74496 29.88032-16.85504 7.2704-7.2704 12.73856-16.26112 15.872-26.37824 14.52032-47.0016 39.58784-87.87968 76.6976-124.928 49.50016-49.50016 113.99168-86.9376 182.31296-126.5664 72.37632-42.04544 147.27168-85.56544 208.56832-146.88256 52.1216-52.1216 87.61344-110.24384 108.4416-177.62304 6.98368-22.71232 0.83968-47.43168-15.91296-64.16384zM384.029206 960c-105.984-105.984-214.016-214.05696-320-320 90.95168-294.44096 485.13024-281.55904 576-576 105.984 105.94304 214.05696 214.016 320.06144 320-90.97216 294.35904-485.15072 281.55904-576.06144 576zM626.020886 476.79488c-10.42432-8.74496-20.93056-14.68416-31.47776-17.63328-10.48576-2.94912-20.992-4.13696-31.62112-3.35872-10.48576 0.79872-21.25824 3.19488-32.01024 7.33184-10.752 4.1984-21.56544 8.74496-32.44032 14.00832-17.18272-19.74272-34.36544-39.26016-51.54816-57.38496 7.74144-7.00416 15.2576-10.56768 22.48704-10.81344 7.2704-0.32768 14.2336 0.45056 20.86912 2.10944 6.7584 1.69984 12.92288 3.13344 18.61632 4.25984 5.75488 1.1264 10.752-0.12288 15.13472-3.80928 4.64896-3.9936 7.20896-9.17504 7.55712-15.42144 0.32768-6.30784-2.048-12.45184-7.33184-18.432-6.7584-7.74144-14.88896-12.45184-24.63744-14.17216-9.6256-1.69984-19.49696-1.57696-29.75744 0.67584-10.11712 2.29376-19.74272 6.10304-28.85632 11.48928s-16.44544 10.87488-21.89312 16.26112c-2.08896-1.98656-4.15744-3.93216-6.2464-5.87776-2.29376-2.10944-5.18144-3.25632-8.64256-3.19488-3.4816 0-6.36928 1.49504-8.74496 4.25984-2.31424 2.68288-3.35872 5.81632-2.94912 9.1136 0.32768 3.42016 1.69984 6.0416 4.05504 8.06912 2.08896 1.76128 4.15744 3.4816 6.2464 5.30432-8.192 9.89184-14.9504 20.80768-20.25472 32.31744-5.36576 11.55072-8.58112 22.99904-9.76896 34.11968-1.24928 11.20256-0.06144 21.44256 3.35872 30.94528 3.42016 9.56416 9.76896 17.69472 19.00544 25.37472 15.07328 12.51328 32.80896 17.8176 53.37088 16.65024 20.52096-1.24928 42.61888-7.35232 66.39616-20.13184 18.88256 21.83168 37.82656 43.47904 56.7296 63.61088-8.00768 6.7584-15.01184 10.62912-21.17632 11.8784-6.18496 1.31072-11.6736 1.18784-16.67072-0.32768-4.99712-1.57696-9.6256-3.80928-13.88544-6.69696-4.25984-2.94912-8.43776-5.44768-12.63616-7.49568-4.13696-2.048-8.37632-3.19488-12.73856-3.25632s-8.99072 2.048-14.11072 6.43072c-5.24288 4.56704-7.86432 9.89184-7.86432 15.872 0 5.95968 2.74432 12.00128 8.13056 18.10432 5.44768 6.10304 12.51328 11.264 21.05344 15.31904s18.20672 6.61504 28.83584 7.33184c10.62912 0.73728 21.83168-0.86016 33.62816-5.24288 11.8784-4.32128 23.61344-12.12416 35.20512-23.73632 5.57056 5.44768 11.20256 10.62912 16.7936 15.60576 2.37568 2.048 5.24288 3.072 8.74496 2.80576 3.35872-0.12288 6.30784-1.69984 8.64256-4.5056 2.37568-2.88768 3.35872-6.0416 3.01056-9.37984-0.32768-3.35872-1.69984-5.95968-3.9936-7.80288-5.632-4.5056-11.264-9.25696-16.85504-14.2336 9.56416-11.73504 17.24416-24.12544 22.9376-36.39296 5.69344-12.32896 9.05216-24.18688 10.17856-35.20512 1.1264-11.07968-0.18432-21.05344-3.80928-30.1056-3.584-9.17504-9.95328-17.05984-19.06688-24.63744zM447.107606 498.50368c-9.05216 0.38912-16.95744-2.62144-23.87968-9.3184-2.94912-2.80576-4.99712-6.2464-6.2464-10.30144-1.31072-4.05504-1.76128-8.51968-1.24928-13.37344 0.45056-4.79232 1.88416-9.8304 4.38272-14.88896 2.37568-5.05856 5.89824-10.11712 10.36288-15.01184 16.22016 16.11776 32.41984 33.83296 48.64 52.1216-12.288 6.7584-22.97856 10.36288-32.03072 10.752zM598.045206 562.56512c-2.88768 5.30432-6.18496 10.05568-10.05568 14.17216-17.96096-18.10432-35.88096-38.01088-53.76-58.42944 4.56704-2.048 9.37984-4.1984 14.56128-6.36928s10.36288-3.62496 15.54432-4.5056c5.30432-0.79872 10.56768-0.57344 15.81056 0.67584 5.18144 1.31072 10.11712 4.13696 14.68416 8.58112 4.5056 4.5056 7.35232 9.17504 8.51968 14.2336 1.24928 5.12 1.31072 10.30144 0.45056 15.60576-0.9216 5.34528-2.82624 10.6496-5.75488 16.03584zM470.966806 709.75488c6.30784-5.07904 15.58528-4.83328 21.38112 1.06496 6.26688 6.2464 6.26688 16.44544 0 22.69184-0.512 0.512-1.06496 0.86016-1.6384 1.31072l0.06144 0.06144c-20.25472 15.40096-36.90496 29.24544-54.84544 47.2064-16.22016 16.19968-30.88384 33.23904-43.56096 50.56512l-20.43904 27.99616c-0.63488 1.14688-1.41312 2.21184-2.37568 3.19488-6.26688 6.2464-16.4864 6.2464-22.71232 0-5.44768-5.44768-6.10304-13.824-2.10944-20.0704l-0.06144-0.06144 21.89312-29.88032c13.66016-18.69824 29.36832-36.98688 46.75584-54.3744 18.08384-18.14528 37.60128-34.34496 57.61024-49.70496l0.06144 0zM588.132886 246.8864c16.19968-16.19968 30.8224-33.1776 43.52-50.5856l21.25824-29.12256c0.77824-1.37216 1.6384-2.74432 2.80576-3.93216 6.30784-6.30784 16.50688-6.30784 22.81472 0 5.98016 6.02112 6.2464 15.52384 0.79872 21.89312l0.06144 0.06144-21.89312 30.02368c-13.70112 18.67776-29.36832 36.92544-46.75584 54.31296-18.08384 18.08384-37.56032 34.34496-57.56928 49.70496l-0.12288-0.06144c-6.36928 5.85728-16.26112 5.7344-22.36416-0.45056-6.30784-6.30784-6.30784-16.56832 0-22.87616 1.1264-1.18784 2.43712-2.00704 3.74784-2.74432 18.82112-14.37696 36.9664-29.45024 53.69856-46.1824z" p-id="7773"></path></svg>