<?xml version="1.0" standalone="no"?><!DOCTYPE svg PUBLIC "-//W3C//DTD SVG 1.1//EN" "http://www.w3.org/Graphics/SVG/1.1/DTD/svg11.dtd"><svg t="1601377478421" class="icon" viewBox="0 0 1024 1024" version="1.1" xmlns="http://www.w3.org/2000/svg" p-id="8048" xmlns:xlink="http://www.w3.org/1999/xlink" width="200" height="200"><defs><style type="text/css"></style></defs><path d="M480.01024 320c0-17.67424 14.336-32.01024 32.01024-32.01024s32.01024 14.336 32.01024 32.01024c0 17.67424-14.336 32.01024-32.01024 32.01024s-32.01024-14.336-32.01024-32.01024zM480.01024 704c0-17.67424 14.336-32.01024 32.01024-32.01024s32.01024 14.336 32.01024 32.01024c0 17.67424-14.336 32.01024-32.01024 32.01024s-32.01024-14.336-32.01024-32.01024zM288.01024 512c0-17.67424 14.336-32.01024 32.01024-32.01024s32.01024 14.336 32.01024 32.01024c0 17.67424-14.336 32.01024-32.01024 32.01024s-32.01024-14.336-32.01024-32.01024zM672.01024 512c0-17.67424 14.336-32.01024 32.01024-32.01024s32.01024 14.336 32.01024 32.01024c0 17.67424-14.336 32.01024-32.01024 32.01024s-32.01024-14.336-32.01024-32.01024zM344.22784 647.74144c0-17.67424 14.336-32.01024 32.01024-32.01024s32.01024 14.336 32.01024 32.01024c0 17.67424-14.336 32.01024-32.01024 32.01024s-32.01024-14.336-32.01024-32.01024zM344.22784 376.2176c0-17.67424 14.336-32.01024 32.01024-32.01024s32.01024 14.336 32.01024 32.01024c0 17.67424-14.336 32.01024-32.01024 32.01024s-32.01024-14.336-32.01024-32.01024zM615.75168 647.74144c0-17.67424 14.336-32.01024 32.01024-32.01024s32.01024 14.336 32.01024 32.01024c0 17.67424-14.336 32.01024-32.01024 32.01024s-32.01024-14.336-32.01024-32.01024zM832 448c-2.23232 0-4.13696 1.06496-6.30784 1.29024-11.14112-55.84896-37.43744-105.79968-73.50272-147.00544l-45.95712-249.97888c-5.59104-30.3104-32.07168-52.28544-62.91456-52.28544l-256 0c-30.84288 0-57.28256 22.016-62.93504 52.3264l-44.81024 241.5616c-53.76 57.18016-87.59296 133.36576-87.59296 218.112 0 82.65728 32.44032 156.95872 83.8656 213.68832l45.17888 246.00576c5.632 30.26944 32.09216 52.28544 62.93504 52.28544l256 0c30.8224 0 57.2416-22.016 62.93504-52.3264l45.568-245.82144c38.05184-41.94304 65.69984-93.45024 77.18912-151.20384 2.17088 0.28672 4.05504 1.35168 6.30784 1.35168 35.328 0 64-28.672 64-64 0-35.36896-28.672-64-64-64zM387.31776 64l256 0 32.01024 172.38016c-47.26784-27.48416-101.376-44.38016-160.01024-44.38016-58.59328 0-112.7424 16.896-160.01024 44.38016l32.01024-172.38016zM640 960l-256 0-32.01024-172.38016c47.22688 27.46368 101.376 44.38016 160.01024 44.38016 58.59328 0 112.76288-16.93696 160.01024-44.38016l-32.01024 172.38016zM512 768c-141.14816 0-256-114.87232-256-256 0-141.14816 114.85184-256 256-256s256 114.85184 256 256c0 141.12768-114.87232 256-256 256zM670.1056 352.82944c3.87072 3.87072 4.25984 10.11712 0.90112 14.37696l-77.63968 96.6656-59.12576 71.20896c-6.0416 5.81632-14.37696 8.8064-22.36416 8.86784-8.6016-0.06144-16.65024-3.39968-22.6304-9.33888s-9.25696-13.9264-9.25696-22.34368c0-8.704 3.35872-16.83456 9.46176-22.97856l166.15424-137.1136c4.38272-3.52256 10.62912-3.19488 14.49984 0.67584z" p-id="8049"></path></svg>