<?xml version="1.0" standalone="no"?><!DOCTYPE svg PUBLIC "-//W3C//DTD SVG 1.1//EN" "http://www.w3.org/Graphics/SVG/1.1/DTD/svg11.dtd"><svg t="1601381288488" class="icon" viewBox="0 0 1024 1024" version="1.1" xmlns="http://www.w3.org/2000/svg" p-id="4135" xmlns:xlink="http://www.w3.org/1999/xlink" width="200" height="200"><defs><style type="text/css"></style></defs><path d="M872.702644 167.473269 146.721131 167.473269c-46.072315 0-83.766822 36.880979-83.766822 81.905428l0 491.432569c0 45.025473 37.694507 81.905428 83.766822 81.905428l725.981513 0c46.070268 0 83.766822-36.879955 83.766822-81.905428l0-491.432569C956.470489 204.354248 918.773935 167.473269 872.702644 167.473269L872.702644 167.473269zM146.721131 222.096331l725.981513 0c15.124466 0 27.921933 12.505825 27.921933 27.282367l0 81.905428L118.799198 331.284125l0-81.905428C118.799198 234.602156 131.597689 222.096331 146.721131 222.096331L146.721131 222.096331zM872.702644 768.094656 146.721131 768.094656c-15.124466 0-27.922956-12.507872-27.922956-27.282367l0-245.716284 781.826402 0 0 245.716284C900.624577 755.586784 887.827109 768.094656 872.702644 768.094656L872.702644 768.094656zM174.644087 604.2838l55.844889 0 0 109.246123-55.844889 0L174.644087 604.2838zM286.332842 604.2838l55.844889 0 0 109.246123-55.844889 0L286.332842 604.2838zM398.022621 604.2838l55.845912 0 0 109.246123-55.845912 0L398.022621 604.2838zM398.022621 604.2838" p-id="4136"></path></svg>