<?xml version="1.0" standalone="no"?><!DOCTYPE svg PUBLIC "-//W3C//DTD SVG 1.1//EN" "http://www.w3.org/Graphics/SVG/1.1/DTD/svg11.dtd"><svg t="1601377482091" class="icon" viewBox="0 0 1024 1024" version="1.1" xmlns="http://www.w3.org/2000/svg" p-id="8186" xmlns:xlink="http://www.w3.org/1999/xlink" width="200" height="200"><defs><style type="text/css"></style></defs><path d="M899.54304 160.70656l-38.87104-116.96128c-8.66304-26.15296-33.11616-43.74528-60.66176-43.74528l-576 0c-27.58656 0-51.99872 17.59232-60.74368 43.74528l-39.19872 117.02272c-33.40288 2.1504-60.06784 29.2864-60.06784 63.24224l0 95.98976c0 35.328 28.672 64 64 64l33.09568 0c0 2.39616-0.96256 4.66944-0.67584 7.0656l64 576c3.584 32.3584 30.94528 56.9344 63.5904 56.9344l448 0c32.64512 0 60.0064-24.576 63.54944-56.9344l64-576c0.32768-2.39616-0.67584-4.66944-0.67584-7.0656l33.11616 0c35.328 0 64-28.672 64-64l0-96.01024c0-34.07872-26.89024-61.3376-60.45696-63.30368zM224.01024 64l576 0 32.01024 96.01024-640 0 32.01024-96.01024zM288.01024 960l-10.6496-96.01024 469.31968 0-10.6496 96.01024-448 0zM750.1824 832l-476.42624 0-35.55328-320 547.55328 0-35.57376 320zM789.31968 480.01024l-554.65984 0-10.6496-96.01024 576 0-10.69056 96.01024zM896 320l-768 0 0-96.01024 768 0 0 96.01024z" p-id="8187"></path></svg>