<?xml version="1.0" standalone="no"?><!DOCTYPE svg PUBLIC "-//W3C//DTD SVG 1.1//EN" "http://www.w3.org/Graphics/SVG/1.1/DTD/svg11.dtd"><svg t="1601381302185" class="icon" viewBox="0 0 1024 1024" version="1.1" xmlns="http://www.w3.org/2000/svg" p-id="4825" xmlns:xlink="http://www.w3.org/1999/xlink" width="200" height="200"><defs><style type="text/css"></style></defs><path d="M511.654 133.165c-0.139 0 0.831 0-0.276 0v-62.689l-216.991 90.921 216.991 90.921v-67.671c1.107 0 0.276 0 0.276 0 198.863 0 360.223 161.222 360.223 360.084 0 198.863-161.222 359.947-360.084 359.947-198.724 0-359.807-160.253-360.084-359.807h-51.619c0.276 227.924 184.47 411.287 411.565 411.287 227.372 0 411.565-184.194 411.565-411.565 0-227.232-184.333-411.426-411.565-411.426v0zM727.677 327.184h-70.577c-4.567 14.67-12.455 29.476-31.414 60.198l-113.755 184.333-114.308-184.333c-20.896-32.66-26.847-45.392-31.967-60.198h-69.886c9.826 12.455 20.205 27.817 39.164 57.293l101.3 155.963h-45.806c-29.338 0-45.668-1.938-68.364-5.812v48.989c22.695-3.875 39.026-4.567 68.364-4.567h70.577l25.463 37.919v31.276h-96.041c-29.338 0-45.668-1.107-68.364-5.12v48.85c22.695-3.875 39.026-6.505 68.364-6.505h96.041v65.318c0 29.338-1.246 51.479-5.12 74.037h60.060c-3.875-23.803-5.12-41.377-5.12-74.037v-65.318h95.902c28.093 0 45.806 2.629 67.257 6.505v-48.989c-21.588 3.875-38.61 5.12-67.257 5.12h-95.902v-30.583l26.016-38.61h69.886c28.785 0 45.806 0.692 68.502 4.567v-48.989c-22.695 3.875-39.026 5.812-68.502 5.812h-45.806l100.608-155.963c17.714-26.709 31.553-45.806 40.686-57.154v0zM727.677 327.184z" p-id="4826"></path></svg>