<?xml version="1.0" standalone="no"?><!DOCTYPE svg PUBLIC "-//W3C//DTD SVG 1.1//EN" "http://www.w3.org/Graphics/SVG/1.1/DTD/svg11.dtd"><svg t="1601377488951" class="icon" viewBox="0 0 1025 1024" version="1.1" xmlns="http://www.w3.org/2000/svg" p-id="8462" xmlns:xlink="http://www.w3.org/1999/xlink" width="200.1953125" height="200"><defs><style type="text/css"></style></defs><path d="M1005.24032 309.6576l-162.54976-162.59072c-12.00128-12.00128-28.32384-18.75968-45.24032-18.75968l-570.83904 0c-16.95744 0-33.23904 6.7584-45.24032 18.75968l-162.57024 162.59072c-12.57472 12.53376-18.8416 29.0816-18.78016 45.6704 0.1024 15.03232 5.46816 30.04416 16.19968 42.10688l447.95904 477.06112c12.16512 13.70112 29.57312 21.504 47.84128 21.504s35.67616-7.80288 47.80032-21.504l448-477.06112c10.93632-12.32896 16.32256-27.7504 16.19968-43.13088-0.12288-16.19968-6.43072-32.31744-18.75968-44.6464zM583.00416 352.31744l-142.04928 0 71.04512-59.16672 71.00416 59.16672zM537.02656 272.32256l87.42912-72.88832 64.57344 64.57344-81.01888 67.4816-70.98368-59.16672zM416.01024 331.48928l-81.01888-67.4816 64.57344-64.57344 87.4496 72.88832-71.00416 59.16672zM591.68768 384.32768l-79.68768 398.49984-79.68768-398.49984 159.35488 0zM624.31232 384.32768l156.99968 0-235.47904 392.6016 78.49984-392.6016zM632.9344 352.31744l78.80704-65.6384 65.6384 65.6384-144.44544 0zM662.6304 192.32768l112.37376 0-61.31712 51.0976-51.07712-51.0976zM512 251.51488l-71.04512-59.20768 142.00832 0-70.98368 59.20768zM310.272 243.42528l-61.31712-51.0976 112.41472 0-51.0976 51.0976zM312.25856 286.67904l78.78656 65.6384-144.42496 0 65.6384-65.6384zM399.68768 384.32768l78.49984 392.6016-235.52-392.6016 157.02016 0zM406.528 719.62624l-314.88-335.29856 113.72544 0 201.15456 335.29856zM818.62656 384.32768l113.7664 0-314.94144 335.36 201.17504-335.36zM822.62016 352.31744l-86.17984-86.17984 73.50272-61.27616 147.41504 147.456-134.7584 0zM213.95456 204.8l73.6256 61.3376-86.20032 86.17984-137.17504 0 149.77024-147.51744z" p-id="8463"></path></svg>