<?xml version="1.0" standalone="no"?><!DOCTYPE svg PUBLIC "-//W3C//DTD SVG 1.1//EN" "http://www.w3.org/Graphics/SVG/1.1/DTD/svg11.dtd"><svg t="1601377492103" class="icon" viewBox="0 0 1025 1024" version="1.1" xmlns="http://www.w3.org/2000/svg" p-id="8600" xmlns:xlink="http://www.w3.org/1999/xlink" width="200.1953125" height="200"><defs><style type="text/css"></style></defs><path d="M864.01024 159.86688l-704 0.12288c-17.69472 0-32.01024 14.17216-32.01024 31.86688l0 448c0 17.69472 14.29504 32.01024 32.01024 32.01024l704 0c17.69472 0 32.01024-14.29504 32.01024-32.01024l0-448c0-17.69472-14.29504-32.01024-32.01024-32.01024zM864.01024 640l-704 0 0-448.12288 704 0 0 448.12288zM928.01024 32.01024l-832 0c-53.02272 0-96.01024 42.94656-96.01024 96.01024l0 640c0 52.92032 42.82368 95.80544 95.68256 95.92832l320.32768 0 0 38.95296-199.74144 25.94816c-14.27456 3.54304-24.24832 16.34304-24.24832 31.04768 0 17.69472 14.29504 32.01024 32.01024 32.01024l576 0c17.69472 0 32.01024-14.29504 32.01024-32.01024 0-14.68416-9.99424-27.48416-24.24832-31.06816l-199.74144-25.92768 0-38.95296 320.32768 0c52.85888-0.12288 95.68256-43.008 95.68256-95.92832l0-640c0-53.06368-43.008-96.01024-96.01024-96.01024zM960 768c0 17.63328-14.37696 32.01024-32.01024 32.01024l-832 0c-17.67424 0-32.01024-14.37696-32.01024-32.01024l0-640c0-17.65376 14.336-32.01024 32.01024-32.01024l832 0c17.63328 0 32.01024 14.336 32.01024 32.01024l0 640z" p-id="8601"></path></svg>