<?xml version="1.0" standalone="no"?><!DOCTYPE svg PUBLIC "-//W3C//DTD SVG 1.1//EN" "http://www.w3.org/Graphics/SVG/1.1/DTD/svg11.dtd"><svg t="1601377494432" class="icon" viewBox="0 0 1025 1024" version="1.1" xmlns="http://www.w3.org/2000/svg" p-id="8738" xmlns:xlink="http://www.w3.org/1999/xlink" width="200.1953125" height="200"><defs><style type="text/css"></style></defs><path d="M944.00672 671.9968l-86.116678 0c-1.433571-7.638887-3.194816-15.134417-5.119898-22.588988l153.555969-76.757505c15.810244-7.905122 22.179396-27.135457 14.294754-42.945701-7.946081-15.810244-27.074019-22.138437-42.945701-14.294754l-146.49051 73.214536c-55.868323-120.563349-177.762845-204.611588-319.194896-204.611588-172.212876 0-315.672407 124.413512-345.879802 287.984l-86.116678 0c-44.092558 0-79.99328 35.880242-79.99328 79.99328 0 15.687366 5.754765 30.821784 16.158397 42.536109l111.839043 125.826603 0 23.653927c0 44.133517 35.900722 79.99328 79.99328 79.99328l607.99808 0c44.133517 0 79.99328-35.880242 79.99328-79.99328l0-23.653927 111.798084-125.826603c10.424112-11.714326 16.199356-26.848743 16.199356-42.536109 0-44.133517-35.880242-79.99328-79.99328-79.99328zM825.573249 671.9968l-17.98108 0 15.933121-8.00752c0.614388 2.682826 1.474531 5.283734 2.047959 8.00752zM512.01024 416.00192c128.919022 0 240.00032 76.798464 290.625867 186.917222l-28.50759 14.233315c-45.321334-99.674167-145.466531-169.140937-262.097798-169.140937-137.028939 0-251.48937 95.783044-280.631827 223.98528l-32.890222 0c29.736365-145.876122 159.00354-255.99488 313.52205-255.99488zM658.439311 671.9968c-24.739345-56.421272-80.99678-96.00832-146.429071-96.00832s-121.669247 39.587048-146.429071 96.00832l-34.364753 0c26.439151-74.422832 97.380452-127.99744 180.793824-127.99744 78.887382 0 146.818184 47.860803 176.247355 116.057839l-29.818284 11.939601zM512.01024 639.9872c-28.261835 0-53.431251 12.51303-71.043699 32.0096l-39.177456 0c22.199876-38.051079 63.036179-63.99872 110.200676-63.99872 47.144017 0 88.0008 25.947641 110.180196 63.99872l-39.197936 0c-17.530529-19.49657-42.720426-32.0096-70.98226-32.0096zM512.01024 511.98976c-101.271575 0-186.937701 67.582648-214.564669 160.00704l-33.033579 0c28.548549-110.200676 128.550389-191.99616 247.577768-191.99616 103.872483 0 193.368293 62.339873 233.426371 151.48753l-28.569029 14.274275c-34.815304-78.621148-113.49789-133.752205-204.857343-133.752205zM832.00384 895.98208l0 48.00416c0 8.826703-7.208816 15.99456-15.99456 15.99456l-607.99808 0c-8.826703 0-15.99456-7.167857-15.99456-15.99456l0-48.00416-127.99744-143.992c0-8.826703 7.167857-15.99456 15.99456-15.99456l863.99296 0c8.806224 0 15.99456 7.167857 15.99456 15.99456l-127.99744 143.992zM255.278094 374.776504c-0.225275-0.450551-0.389112-0.860143-0.573429-1.351653-16.608948-40.099038-0.102398-79.419852 14.806744-114.910982 14.110438-33.668447 26.623468-63.48673 13.700846-92.567749-0.061439-0.122878-0.102398-0.266235-0.163837-0.389112-0.040959-0.102398-0.061439-0.184316-0.102398-0.286714-0.040959-0.061439-0.040959-0.122878-0.040959-0.184316-0.634867-1.699806-1.02398-3.48153-1.02398-5.406612 0-8.642387 7.00402-15.687366 15.687366-15.687366 6.655867 0 12.328713 4.157357 14.601948 10.01452 17.858203 40.672467 1.638367 80.669107-13.49605 116.692706-14.00804 33.340773-25.415172 64.326393-13.414132 92.547269 0.061439 0.225275 0.061439 0.409592 0 0.634867 0.348153 1.269735 0.573429 2.621388 0.573429 3.99352 0 8.867663-7.208816 16.096958-16.055999 16.096958-6.205316 0-11.530009-3.52249-14.171877-8.642387-0.040959 0-0.061439 0-0.061439 0-0.102398-0.184316-0.163837-0.389112-0.245755-0.573429zM644.943261 370.107158c-0.184316-0.409592-0.348153-0.860143-0.51199-1.290214-16.608948-40.099038-0.122878-79.460811 14.745305-114.951941 14.151397-33.668447 26.623468-63.48673 13.700846-92.567749 0-0.122878-0.061439-0.266235-0.122878-0.389112-0.061439-0.102398-0.061439-0.184316-0.122878-0.286714 0-0.061439 0-0.122878 0-0.184316-0.614388-1.699806-1.064939-3.48153-1.064939-5.406612 0-8.642387 7.044979-15.687366 15.687366-15.687366 6.696826 0 12.328713 4.136877 14.622428 10.01452 17.858203 40.672467 1.638367 80.669107-13.49605 116.692706-14.00804 33.340773-25.374213 64.326393-13.434611 92.547269 0.122878 0.225275 0.122878 0.409592 0.061439 0.634867 0.327673 1.290214 0.573429 2.621388 0.573429 3.99352 0 8.867663-7.270255 16.096958-16.137917 16.096958-6.184836 0-11.48905-3.542969-14.171877-8.662867l-0.061439 0c-0.061439-0.184316-0.122878-0.389112-0.245755-0.573429zM480.615028 230.784504c-0.225275-0.450551-0.389112-0.860143-0.614388-1.310694-16.649907-40.099038-0.122878-79.460811 14.786264-114.931461 14.110438-33.668447 26.623468-63.48673 13.700846-92.567749-0.040959-0.122878-0.102398-0.245755-0.122878-0.389112-0.040959-0.102398-0.061439-0.184316-0.102398-0.286714-0.040959-0.061439-0.040959-0.122878-0.040959-0.184316-0.634867-1.699806-1.02398-3.48153-1.02398-5.406612 0-8.642387 7.044979-15.687366 15.687366-15.687366 6.696826 0 12.328713 4.157357 14.622428 10.055479 17.858203 40.672467 1.638367 80.669107-13.49605 116.692706-14.00804 33.340773-25.415172 64.326393-13.414132 92.547269 0.061439 0.225275 0.061439 0.409592 0 0.634867 0.348153 1.290214 0.573429 2.621388 0.573429 3.99352 0 8.867663-7.208816 16.096958-16.055999 16.096958-6.184836 0-11.48905-3.542969-14.171877-8.662867-0.040959 0-0.061439 0-0.061439 0-0.102398-0.184316-0.163837-0.389112-0.245755-0.573429z" p-id="8739"></path></svg>