<?xml version="1.0" standalone="no"?><!DOCTYPE svg PUBLIC "-//W3C//DTD SVG 1.1//EN" "http://www.w3.org/Graphics/SVG/1.1/DTD/svg11.dtd"><svg t="1597473617862" class="icon" viewBox="0 0 1024 1024" version="1.1" xmlns="http://www.w3.org/2000/svg" p-id="3549" xmlns:xlink="http://www.w3.org/1999/xlink" width="200" height="200"><defs><style type="text/css"></style></defs><path d="M879.578264 1023.93604H144.485696A144.485696 144.485696 0 0 1 0 879.450344V66.454466h191.240475v125.809369h193.223235V66.454466h255.77614v126.512929h190.728795V66.454466h193.095315V879.450344a144.485696 144.485696 0 0 1-144.485696 144.485696zM383.76015 257.822861v127.92005h255.8401v-127.92005H383.76015z m0 191.880075v191.880075h255.8401v-191.880075H383.76015z m575.640225-191.880075h-255.8401v127.92005h255.8401v63.960025h-255.8401v191.880075h255.8401v63.960025h-255.8401v191.880075h-63.960025v-191.880075H383.76015v191.880075H319.800125v-191.880075H63.960025v-63.960025h255.8401v-191.880075H63.960025v-63.960025h255.8401v-127.92005H63.960025v575.640225a63.960025 63.960025 0 0 0 63.960025 63.960025h767.5203a63.960025 63.960025 0 0 0 63.960025-63.960025v-575.640225zM704.455715 0h62.233104v128.75153h-62.233104V0z m-447.720175 2.238601h63.960025v126.257089h-63.960025V2.238601z" p-id="3550"></path></svg>