<?xml version="1.0" standalone="no"?><!DOCTYPE svg PUBLIC "-//W3C//DTD SVG 1.1//EN" "http://www.w3.org/Graphics/SVG/1.1/DTD/svg11.dtd"><svg t="1597395180732" class="icon" viewBox="0 0 1024 1024" version="1.1" xmlns="http://www.w3.org/2000/svg" p-id="6535" xmlns:xlink="http://www.w3.org/1999/xlink" width="200" height="200"><defs><style type="text/css"></style></defs><path d="M871.34208 260.46976l-106.93632-106.96704c-24.41728-24.40192-64.11776-24.40192-88.53504 0l-449.95072 449.95072c-10.78784 10.80832-16.53248 24.63744-17.78688 38.79936l-62.83264 198.17472c-3.42016 11.09504-0.4608 23.15776 7.76192 31.3856 8.22272 8.20736 20.29056 11.20256 31.3856 7.76704l198.15424-62.86336c14.1568-1.23392 27.99616-6.98368 38.784-17.78688l449.95584-449.95584C895.75424 324.57216 895.75424 284.87168 871.34208 260.46976zM356.01408 760.94464l-133.39648 41.2928 41.3184-133.41696c0.42496-1.44896 0.64-2.89792 0.85504-4.36736l95.5904 95.59552C358.94784 760.27904 357.48352 760.47872 356.01408 760.94464zM388.19328 743.60832l-106.96192-106.96704 438.89152-438.8864 106.9568 106.96704L388.19328 743.60832z" p-id="6536"></path></svg>