<?xml version="1.0" standalone="no"?><!DOCTYPE svg PUBLIC "-//W3C//DTD SVG 1.1//EN" "http://www.w3.org/Graphics/SVG/1.1/DTD/svg11.dtd"><svg t="1601377499331" class="icon" viewBox="0 0 1025 1024" version="1.1" xmlns="http://www.w3.org/2000/svg" p-id="9014" xmlns:xlink="http://www.w3.org/1999/xlink" width="200.1953125" height="200"><defs><style type="text/css"></style></defs><path d="M1001.1633 15.01154c-11.611928-9.768765-26.172917-15.01154-41.123018-15.01154-3.686326 0-7.413612 0.327673-11.140897 0.98302l-544.060799 96.00832c-30.596508 5.386132-52.857823 31.927681-52.857823 63.0157l0 549.426451c-32.48063-23.551529-74.627627-37.436691-121.403012-37.436691-27.196896 0-54.393792 4.50551-80.935341 13.311734-60.742465 20.254315-109.442931 60.865343-133.629327 111.49089-18.677386 39.136497-21.093978 81.693086-6.840183 119.867043 24.350233 65.207016 93.530289 107.333533 176.247355 107.333533 27.196896 0 54.393792-4.444071 80.894382-13.311734 60.701506-20.192876 109.401972-60.803904 133.588368-111.368013 10.403632-21.831243 15.257295-44.665987 15.462091-67.336893l0.573429 0 0-511.98976c3.686326 0 7.434091-0.327673 11.140897-0.921582l532.940381-94.042279 0 388.415912c-32.50111-23.551529-74.627627-37.436691-121.443971-37.436691-27.196896 0-54.434751 4.50551-80.935341 13.311734-60.742465 20.254315-109.442931 60.865343-133.567889 111.49089-18.697866 39.136497-21.114458 81.693086-6.881142 119.867043 24.391192 65.207016 93.50981 107.333533 176.247355 107.333533 27.196896 0 54.434751-4.444071 80.935341-13.311734 60.660547-20.192876 109.381492-60.803904 133.567889-111.368013 10.424112-21.831243 15.257295-44.665987 15.48257-67.316414l0.573429 0 0-671.9968c0-18.882182-8.376152-36.863263-22.875702-48.98718zM246.039842 949.98676c-76.675586 25.558529-155.931601 0.573429-176.923182-55.684006-21.053019-56.318874 24.02256-122.693226 100.677666-148.251755 76.675586-25.558529 155.931601-0.634867 176.923182 55.684006 21.093978 56.277914-24.00208 122.693226-100.677666 148.251755zM852.911545 853.99892c-76.737025 25.558529-155.99304 0.573429-176.98462-55.684006-21.053019-56.318874 24.063519-122.693226 100.677666-148.251755 76.737025-25.558529 155.99304-0.634867 176.98462 55.684006 21.093978 56.277914-23.961121 122.693226-100.677666 148.251755zM958.750068 160.00704l-544.060799 96.00832 0-96.00832 544.060799-96.00832 0 96.00832z" p-id="9015"></path></svg>