<?xml version="1.0" standalone="no"?><!DOCTYPE svg PUBLIC "-//W3C//DTD SVG 1.1//EN" "http://www.w3.org/Graphics/SVG/1.1/DTD/svg11.dtd"><svg t="1601377501711" class="icon" viewBox="0 0 1025 1024" version="1.1" xmlns="http://www.w3.org/2000/svg" p-id="9152" xmlns:xlink="http://www.w3.org/1999/xlink" width="200.1953125" height="200"><defs><style type="text/css"></style></defs><path d="M1005.2608 242.72896l-192-192c-12.00128-12.00128-28.32384-18.71872-45.24032-18.71872l-672.01024 0c-52.92032 0-96.01024 43.04896-96.01024 96.01024l0 768c0 52.92032 43.06944 96.01024 96.01024 96.01024l832 0c52.92032 0 96.01024-43.06944 96.01024-96.01024l0-608.01024c0-16.9984-6.7584-33.28-18.75968-45.28128zM960.02048 896c0 17.69472-14.29504 32.01024-32.01024 32.01024l-832 0c-17.69472 0-32.01024-14.29504-32.01024-32.01024l0-768c0-17.69472 14.29504-32.01024 32.01024-32.01024l640 0 0 128-0.06144 0c0 53.02272 43.008 96.01024 96.01024 96.01024l128.06144 0 0 576zM863.9488 288.01024l-32.01024 0c-35.26656 0-64-28.71296-64-64l0.06144 0 0-128 192 192-96.07168 0zM496.0256 256c-8.82688 0-15.99488-7.12704-15.99488-15.99488s7.168-15.99488 15.99488-15.99488l160.01024 0c8.8064 0 15.99488 7.168 15.99488 15.99488s-7.20896 15.99488-15.99488 15.99488l-160.01024 0zM496.0256 352.01024c-8.82688 0-15.99488-7.168-15.99488-15.99488s7.168-15.99488 15.99488-15.99488l160.01024 0c8.8064 0 15.99488 7.168 15.99488 15.99488s-7.20896 15.99488-15.99488 15.99488l-160.01024 0zM480.03072 432.00512c0-8.86784 7.168-15.99488 15.99488-15.99488l384 0c8.8064 0 15.99488 7.168 15.99488 15.99488s-7.20896 15.99488-15.99488 15.99488l-384 0c-8.82688 0-15.99488-7.168-15.99488-15.99488zM880.0256 608.01024c8.8064 0 15.99488 7.12704 15.99488 15.99488 0 8.8064-7.20896 15.99488-15.99488 15.99488l-736.01024 0c-8.82688 0-15.99488-7.20896-15.99488-15.99488 0-8.86784 7.168-15.99488 15.99488-15.99488l736.01024 0zM880.0256 704c8.8064 0 15.99488 7.12704 15.99488 15.99488 0 8.8064-7.20896 15.99488-15.99488 15.99488l-736.01024 0c-8.82688 0-15.99488-7.20896-15.99488-15.99488 0-8.86784 7.168-15.99488 15.99488-15.99488l736.01024 0zM880.0256 800.01024c8.8064 0 15.99488 7.12704 15.99488 15.99488 0 8.8064-7.20896 15.99488-15.99488 15.99488l-736.01024 0c-8.82688 0-15.99488-7.20896-15.99488-15.99488 0-8.86784 7.168-15.99488 15.99488-15.99488l736.01024 0zM880.0256 512c8.8064 0 15.99488 7.168 15.99488 15.99488s-7.20896 15.99488-15.99488 15.99488l-736.01024 0c-8.82688 0-15.99488-7.12704-15.99488-15.99488s7.168-15.99488 15.99488-15.99488l736.01024 0zM160.03072 448l224.01024 0c17.69472 0 32.01024-14.29504 32.01024-32.01024l0-192c0-17.69472-14.29504-32.01024-32.01024-32.01024l-224.01024 0c-17.69472 0-32.01024 14.29504-32.01024 32.01024l0 192c0 17.67424 14.29504 32.01024 32.01024 32.01024zM192.02048 256l160.01024 0 0 128-160.01024 0 0-128z" p-id="9153"></path></svg>