<?xml version="1.0" standalone="no"?><!DOCTYPE svg PUBLIC "-//W3C//DTD SVG 1.1//EN" "http://www.w3.org/Graphics/SVG/1.1/DTD/svg11.dtd"><svg t="1601381299520" class="icon" viewBox="0 0 1024 1024" version="1.1" xmlns="http://www.w3.org/2000/svg" p-id="4687" xmlns:xlink="http://www.w3.org/1999/xlink" width="200" height="200"><defs><style type="text/css"></style></defs><path d="M798.287817 844.581678c0 16.018835-3.111874 30.919197-9.337669 44.702108-6.225795 13.780865-14.794961 25.952068-25.708522 36.515658-10.877745 10.598382-23.644513 18.922978-38.265512 25.00858-14.654768 6.085602-30.360472 9.129938-47.183626 9.129938L346.206488 959.937962c-16.823154 0-32.562627-3.044336-47.182602-9.129938-14.622022-6.085602-27.38879-14.410198-38.301328-25.00858-10.876722-10.562567-19.445888-22.734794-25.671683-36.515658-6.226818-13.782911-9.339716-28.682249-9.339716-44.702108L225.71116 180.396603c0-16.019859 3.112897-31.095205 9.339716-45.191248 6.225795-14.131859 14.794961-26.443255 25.671683-37.005822 10.913561-10.562567 23.680329-18.921955 38.301328-25.009603 14.619976-6.085602 30.359448-9.127891 47.182602-9.127891l331.586001 0c16.823154 0 32.528857 3.043313 47.183626 9.127891 14.619976 6.087649 27.387767 14.447037 38.265512 25.009603 10.913561 10.562567 19.482727 22.874987 25.708522 37.005822 6.225795 14.096043 9.337669 29.17139 9.337669 45.191248L798.287817 844.581678 798.287817 844.581678 798.287817 844.581678zM722.633766 226.497571 300.421722 226.497571l0 570.970066 422.212044 0L722.633766 226.497571 722.633766 226.497571 722.633766 226.497571zM511.54514 824.399009c-13.080923 0-24.449855 4.828982-34.102702 14.412244-9.653871 9.617032-14.479783 21.473057-14.479783 35.570123 0 13.46671 4.826935 25.15082 14.479783 35.082006 9.653871 9.93528 21.021779 14.900362 34.102702 14.900362 13.710256 0 25.184589-4.965082 34.558074-14.900362 9.338692-9.931187 13.990642-21.615297 13.990642-35.082006 0-14.096043-4.65195-25.952068-13.990642-35.570123C536.729729 829.227991 525.255397 824.399009 511.54514 824.399009L511.54514 824.399009 511.54514 824.399009zM586.255703 144.789641c0-5.106298-1.538029-9.093099-4.685719-11.996219-3.078105-2.904143-6.505158-4.303003-10.284227-4.303003L452.677405 128.490419c-3.112897 0-6.365988 1.397836-9.792017 4.303003-3.428076 2.902096-5.142114 6.888897-5.142114 11.996219 0 5.14109 1.539053 9.16473 4.686742 12.033058 3.078105 2.867304 6.505158 4.336772 10.248412 4.336772l118.608352 0c3.778046 0 7.206122-1.469468 10.284227-4.336772C584.717673 153.954371 586.255703 149.930731 586.255703 144.789641L586.255703 144.789641 586.255703 144.789641zM586.255703 144.789641" p-id="4688"></path></svg>