<?xml version="1.0" standalone="no"?><!DOCTYPE svg PUBLIC "-//W3C//DTD SVG 1.1//EN" "http://www.w3.org/Graphics/SVG/1.1/DTD/svg11.dtd"><svg t="1597473786236" class="icon" viewBox="0 0 1024 1024" version="1.1" xmlns="http://www.w3.org/2000/svg" p-id="4443" xmlns:xlink="http://www.w3.org/1999/xlink" width="200" height="200"><defs><style type="text/css"></style></defs><path d="M656 96.1c62.4 21.6 119.5 57.2 166.8 104.5 47.3 47.2 83 104.1 104.8 166.4H656V96.1m-36.1-83.8c-19.3 0-35.9 15.7-35.9 36V439h391.5c23.2 0 40.3-21.6 35.1-44.2-44.3-189-193.2-337.7-382.3-381.5-2.9-0.7-5.7-1-8.4-1z" fill="" p-id="4444"></path><path d="M440 114.4V584h469.6c-15.4 85.8-58.3 164.3-123.1 224.4C711.7 877.8 614.2 916 512 916c-54.6 0-107.5-10.7-157.2-31.7-48.1-20.3-91.3-49.5-128.4-86.6-37.1-37.1-66.3-80.3-86.6-128.4C118.7 619.5 108 566.6 108 512c0-102.2 38.2-199.7 107.6-274.6 60.1-64.7 138.6-107.6 224.4-123m36.1-77c-1 0-1.9 0-2.9 0.1C228.5 57.3 36 262.2 36 512c0 262.9 213.1 476 476 476 249.8 0 454.7-192.5 474.4-437.2 1.7-20.9-14.9-38.8-35.9-38.8H512V73.5c0-20-16.2-36.1-35.9-36.1z" fill="" p-id="4445"></path></svg>