<?xml version="1.0" standalone="no"?><!DOCTYPE svg PUBLIC "-//W3C//DTD SVG 1.1//EN" "http://www.w3.org/Graphics/SVG/1.1/DTD/svg11.dtd"><svg t="1601377496858" class="icon" viewBox="0 0 1025 1024" version="1.1" xmlns="http://www.w3.org/2000/svg" p-id="8876" xmlns:xlink="http://www.w3.org/1999/xlink" width="200.1953125" height="200"><defs><style type="text/css"></style></defs><path d="M1024 256c0-44.99456-30.6176-83.456-74.42432-93.57312l-416.41984-96.09216c-6.98368-1.57696-14.09024-2.33472-21.15584-2.33472s-14.17216 0.75776-21.6064 2.43712l-415.96928 96.01024c-43.84768 10.11712-74.42432 48.57856-74.42432 93.57312s30.6176 83.456 74.40384 93.57312l85.6064 19.74272 0 270.68416c0 84.93056 97.21856 160.01024 352.01024 160.01024s352.01024-75.07968 352.01024-160.01024l0-270.68416 85.56544-19.74272c43.80672-10.11712 74.42432-48.57856 74.42432-93.57312zM800.01024 640c0 35.36896-96.01024 96.01024-288.01024 96.01024s-288.01024-60.64128-288.01024-96.01024l0-255.8976 266.81344 61.56288c6.98368 1.57696 14.11072 2.33472 21.17632 2.33472s14.21312-0.75776 21.56544-2.43712l266.42432-61.48096 0 255.8976zM519.20896 383.20128c-2.39616 0.512-4.79232 0.79872-7.20896 0.79872s-4.83328-0.28672-7.20896-0.79872l-416.01024-96.01024c-14.52032-3.35872-24.80128-16.2816-24.80128-31.19104s10.28096-27.83232 24.80128-31.19104l416.01024-95.98976c2.37568-0.512 4.77184-0.79872 7.20896-0.79872s4.83328 0.28672 7.20896 0.79872l415.98976 95.98976c14.49984 3.35872 24.80128 16.2816 24.80128 31.19104s-10.30144 27.83232-24.80128 31.19104l-415.98976 96.01024zM928.01024 416.01024c0-17.69472 14.29504-32.01024 32.01024-32.01024 17.65376 0 32.01024 14.29504 32.01024 32.01024l0 288.01024c0 17.69472-14.336 32.01024-32.01024 32.01024-17.69472 0-32.01024-14.29504-32.01024-32.01024l0-288.01024zM960 768c35.328 0 64 92.672 64 128s-28.672 64-64 64c-35.36896 0-64-28.672-64-64s28.63104-128 64-128z" p-id="8877"></path></svg>