<?xml version="1.0" standalone="no"?><!DOCTYPE svg PUBLIC "-//W3C//DTD SVG 1.1//EN" "http://www.w3.org/Graphics/SVG/1.1/DTD/svg11.dtd"><svg t="1599706439937" class="icon" viewBox="0 0 1024 1024" version="1.1" xmlns="http://www.w3.org/2000/svg" p-id="9239" xmlns:xlink="http://www.w3.org/1999/xlink" width="200" height="200"><defs><style type="text/css"></style></defs><path d="M795.008 130.016l-31.008 8.96-246.016 70.016-29.984 9.024 6.016 21.984-231.04-67.008-30.976-8.992-8.992 31.008-90.016 305.984c-10.88 37.888-17.504 83.136-4.992 127.008 10.112 35.52 35.52 69.632 75.008 90.016l-29.024 104.96-92-26.976L64 858.016l246.016 70.976 17.984-61.984-92-27.008 28.992-104a147.936 147.936 0 0 0 111.008-36.992c34.016-30.496 53.12-71.136 64-109.024l79.008-264 64.992 231.04v0.96c10.88 37.888 30.016 78.528 64 109.024 27.744 24.864 66.496 39.872 111.008 36l28.992 104.992-92 27.008 18.016 61.984L960 826.016l-18.016-62.016-92 27.008-29.984-105.024c39.488-20.352 64.864-54.496 75.008-89.984 12.48-43.872 6.88-89.12-4-127.008l-87.008-308zM752 208.96L792 352H592l-24.992-90.016zM276 244l184 52-26.016 88h-200zM610.016 416h200l20 71.008c8.608 29.76 11.616 65.12 4 92-7.648 26.88-22.144 45.76-61.024 56.992-38.88 11.264-61.248 2.624-81.984-16-20.768-18.624-37.376-50.24-46.016-80zM215.008 448h200l-36 124h-0.992c-8.64 29.76-24.256 61.376-45.024 80-20.736 18.624-43.104 27.264-81.984 16-38.88-11.264-53.376-30.112-61.024-56.992-7.616-26.88-4.608-62.272 4-92z" p-id="9240"></path></svg>