<?xml version="1.0" standalone="no"?><!DOCTYPE svg PUBLIC "-//W3C//DTD SVG 1.1//EN" "http://www.w3.org/Graphics/SVG/1.1/DTD/svg11.dtd"><svg class="icon" width="200px" height="200.00px" viewBox="0 0 1024 1024" version="1.1" xmlns="http://www.w3.org/2000/svg"><path fill="#333333" d="M678.4 307.2l37.504-117.12c7.936-24.832-8.064-50.56-38.4-61.056a85.12 85.12 0 0 0-82.048 12.8l-12.8 11.264-4.352-11.776C569.856 117.76 541.312 102.4 509.44 102.4s-59.264 17.408-66.304 41.6l-3.328 11.776-13.568-10.624a87.68 87.68 0 0 0-82.688-9.728 59.392 59.392 0 0 0-33.28 30.08 42.24 42.24 0 0 0 0 32.768l42.624 105.728a378.24 378.24 0 0 0-217.6 342.4v46.208A229.376 229.376 0 0 0 363.264 921.6h297.472a229.376 229.376 0 0 0 229.12-228.992V646.4A378.24 378.24 0 0 0 678.4 307.2z m-310.144-119.04a29.952 29.952 0 0 1 22.272 2.56l40.064 31.488A35.2 35.2 0 0 0 486.4 204.8l11.648-40.96a26.752 26.752 0 0 1 12.8-2.816 25.6 25.6 0 0 1 13.952 2.944L539.392 204.8a35.328 35.328 0 0 0 56.448 14.464l38.4-33.28a28.928 28.928 0 0 1 23.04-2.432l-31.616 97.792-1.408 4.608A378.752 378.752 0 0 0 512 268.8a373.504 373.504 0 0 0-104.96 14.976zM832 692.608a171.264 171.264 0 0 1-171.264 171.008H363.264A171.264 171.264 0 0 1 192 692.608V646.4a320 320 0 1 1 640 0z"  /><path fill="#333333" d="M629.248 592.256a28.928 28.928 0 1 0 0-57.856h-62.464l48.64-48.64a28.928 28.928 0 1 0-40.96-40.96l-59.52 59.52-59.52-59.52a28.928 28.928 0 0 0-40.96 40.96l48.64 48.64h-56.704a28.928 28.928 0 1 0 0 57.856H486.4v48.768h-67.584a28.928 28.928 0 1 0 0 57.856H486.4v59.648a28.928 28.928 0 1 0 57.856 0V698.88h72.96a28.928 28.928 0 1 0 0-57.856h-72.96v-48.768z"  /></svg>