<?xml version="1.0" standalone="no"?><!DOCTYPE svg PUBLIC "-//W3C//DTD SVG 1.1//EN" "http://www.w3.org/Graphics/SVG/1.1/DTD/svg11.dtd"><svg t="1599706436617" class="icon" viewBox="0 0 1024 1024" version="1.1" xmlns="http://www.w3.org/2000/svg" p-id="9095" xmlns:xlink="http://www.w3.org/1999/xlink" width="200" height="200"><defs><style type="text/css"></style></defs><path d="M272 160A176.192 176.192 0 0 0 96 336v352C96 785.024 174.944 864 272 864s176-78.976 176-176v-352C448 238.976 369.056 160 272 160z m0 64c61.76 0 112 50.24 112 112V480H160v-144C160 274.24 210.24 224 272 224z m448 224a208.256 208.256 0 0 0-208 208c0 114.688 93.312 208 208 208s208-93.312 208-208-93.312-208-208-208z m0 64c79.392 0 144 64.608 144 144 0 28.128-8.384 54.176-22.4 76.384l-197.984-198.016A142.688 142.688 0 0 1 720 512zM160 544h224v144c0 61.76-50.24 112-112 112S160 749.76 160 688V544z m438.4 35.616l197.984 198.016c-22.208 13.984-48.256 22.368-76.384 22.368a144.16 144.16 0 0 1-144-144c0-28.128 8.384-54.176 22.4-76.384z" p-id="9096"></path></svg>