<?xml version="1.0" standalone="no"?><!DOCTYPE svg PUBLIC "-//W3C//DTD SVG 1.1//EN" "http://www.w3.org/Graphics/SVG/1.1/DTD/svg11.dtd"><svg t="1599745238928" class="icon" viewBox="0 0 1024 1024" version="1.1" xmlns="http://www.w3.org/2000/svg" p-id="2799" xmlns:xlink="http://www.w3.org/1999/xlink" width="200" height="200"><defs><style type="text/css"></style></defs><path d="M931.759008 327.468021h-38.696221L743.377405 68.09335c-24.797578-42.995801-79.992188-57.794356-122.98799-32.996777L518.099404 94.290792l-96.990528-76.29255C401.810761 3.599648 378.013085-2.399766 354.315399 1.099893c-23.797676 3.499658-44.795625 15.998438-58.994239 35.096572L72.842886 329.667806c-40.196075 8.999121-70.393126 44.895616-70.393125 87.791426v516.549556c0 49.595157 40.396055 89.991212 89.991212 89.991212h839.318035c49.595157 0 89.991212-40.396055 89.991212-89.991212V417.459232c0.09999-49.595157-40.296065-89.991212-89.991212-89.991211zM645.886925 79.292257c18.598184-10.798945 42.59584-4.39957 53.394786 14.298603L824.969437 311.369593H243.926179l401.960746-232.077336zM336.017186 66.893467c6.199395-8.39918 15.398496-13.798652 25.69749-15.298506 10.298994-1.499854 20.597988 1.099893 28.497217 6.899327l80.39215 63.293819-313.169417 180.682355L336.017186 66.893467z m634.838004 696.331999H754.27634c-48.295284 0-87.491456-39.296162-87.491456-87.491456 0-48.295284 39.296162-87.491456 87.491456-87.491456H970.95518v174.982912zM754.27634 537.347525c-76.29255 0-138.486476 62.093936-138.486476 138.486476s62.093936 138.486476 138.486476 138.486476H970.95518v119.788301c0 21.597891-17.498291 39.096182-39.096182 39.096182h-694.932135v-74.692705h-48.395274v74.692705h-95.990626c-21.597891 0-39.096182-17.498291-39.096182-39.096182V417.459232c0-21.597891 17.498291-39.096182 39.096182-39.096182h95.990626v76.19256h48.395274v-76.19256h694.832145c21.597891 0 39.096182 17.498291 39.096182 39.096182v119.788302H754.27634z" fill="#303030" p-id="2800"></path><path d="M188.531589 500.151157h48.395274v87.191485h-48.395274zM188.531589 632.93819h48.395274v87.191485h-48.395274zM188.531589 765.625232h48.395274v87.191485h-48.395274z" fill="#303030" p-id="2801"></path><path d="M754.27634 675.73401m-64.593692 0a64.593692 64.593692 0 1 0 129.187384 0 64.593692 64.593692 0 1 0-129.187384 0Z" fill="#303030" p-id="2802"></path></svg>