<?xml version="1.0" standalone="no"?><!DOCTYPE svg PUBLIC "-//W3C//DTD SVG 1.1//EN" "http://www.w3.org/Graphics/SVG/1.1/DTD/svg11.dtd"><svg t="1599659110207" class="icon" viewBox="0 0 1024 1024" version="1.1" xmlns="http://www.w3.org/2000/svg" p-id="5286" xmlns:xlink="http://www.w3.org/1999/xlink" width="200" height="200"><defs><style type="text/css"></style></defs><path d="M914.773333 378.453333l-400.213333-261.12-402.773333 261.12a32 32 0 1 0 34.986666 53.76l59.306667-38.826666v432.213333a74.666667 74.666667 0 0 0 74.666667 74.666667h469.333333a74.666667 74.666667 0 0 0 74.666667-74.666667V394.666667l57.173333 37.546666a32 32 0 0 0 17.493333 5.12 32 32 0 0 0 17.493334-58.88zM449.28 836.266667v-123.306667a64 64 0 0 1 128 0v123.306667z m309.333333-10.666667a10.666667 10.666667 0 0 1-10.666666 10.666667H640v-123.306667a128 128 0 0 0-256 0v123.306667H280.746667a10.666667 10.666667 0 0 1-10.666667-10.666667V352l244.053333-158.293333 244.48 159.573333z" p-id="5287"></path></svg>