<?xml version="1.0" standalone="no"?><!DOCTYPE svg PUBLIC "-//W3C//DTD SVG 1.1//EN" "http://www.w3.org/Graphics/SVG/1.1/DTD/svg11.dtd"><svg t="1599815607338" class="icon" viewBox="0 0 1024 1024" version="1.1" xmlns="http://www.w3.org/2000/svg" p-id="12394" xmlns:xlink="http://www.w3.org/1999/xlink" width="200" height="200"><defs><style type="text/css"></style></defs><path d="M783.6 365.3c-35.9 0-65.1-29.2-65.1-65.1 0-35.9 29.2-65.1 65.1-65.1 35.9 0 65.1 29.2 65.1 65.1 0 35.9-29.2 65.1-65.1 65.1z m0-100.3c-19.4 0-35.2 15.8-35.2 35.2s15.8 35.2 35.2 35.2c19.4 0 35.2-15.8 35.2-35.2S803 265 783.6 265z" p-id="12395"></path><path d="M884.7 959.3H139.3c-41.8 0-75.8-32.1-75.8-71.6V135.9c0-39.5 34-71.6 75.8-71.6h632.2c8.3 0 15 6.7 15 15s-6.7 15-15 15H139.3c-25.3 0-45.9 18.7-45.9 41.6v751.8c0 23 20.6 41.6 45.9 41.6h745.5c25.3 0 45.9-18.7 45.9-41.6V487.5c0-8.3 6.7-15 15-15s15 6.7 15 15v400.2c-0.1 39.5-34.1 71.6-76 71.6z" p-id="12396"></path><path d="M193.1 623.7c-3.5 0-6.9-1.2-9.8-3.6-6.3-5.4-7-14.9-1.6-21.1l184.8-215.1c2.7-3.2 6.7-5.1 10.9-5.2 4.2-0.2 8.3 1.5 11.2 4.6L539 538.4l199.6-212.2c5.7-6 15.1-6.3 21.2-0.6 6 5.7 6.3 15.2 0.6 21.2L550.1 570.4c-2.8 3-6.7 4.7-10.8 4.7-4 0.1-8-1.6-10.9-4.6L378.5 415.8 204.4 618.5c-2.9 3.4-7.1 5.2-11.3 5.2zM787.8 822.5H236.2c-29 0-52.6-23.6-52.6-52.6s23.6-52.6 52.6-52.6h551.6c29 0 52.6 23.6 52.6 52.6s-23.6 52.6-52.6 52.6z m-551.6-75.2c-12.5 0-22.6 10.1-22.6 22.6 0 12.5 10.2 22.6 22.6 22.6h551.6c12.5 0 22.6-10.1 22.6-22.6 0-12.5-10.2-22.6-22.6-22.6H236.2z" p-id="12397"></path></svg>