<?xml version="1.0" standalone="no"?><!DOCTYPE svg PUBLIC "-//W3C//DTD SVG 1.1//EN" "http://www.w3.org/Graphics/SVG/1.1/DTD/svg11.dtd"><svg class="icon" width="200px" height="200.00px" viewBox="0 0 1024 1024" version="1.1" xmlns="http://www.w3.org/2000/svg"><path fill="#333333" d="M170.496 729.6l28.16 177.664h217.088l30.208-177.664h32.768v-49.152H332.288c-5.12-9.728-9.728-19.968-12.8-31.232 54.784 9.216 100.352-48.64 124.928-92.16-38.4 0-103.936 17.408-131.584 52.224-0.512-6.656-0.512-13.312 0-19.456 2.048-34.304 13.824-69.12 36.864-99.328 11.776 3.072 23.552 4.608 36.352 4.608 48.64 0 91.648-25.088 116.736-62.464l28.16 5.632c5.12-27.136 14.336-53.76 29.184-77.312l-35.328-22.528c-7.68-69.12-66.56-122.88-138.24-122.88-77.312 0-139.776 62.464-139.776 139.776 0 49.152 25.6 92.672 64 117.76-18.432 26.624-30.208 55.808-35.84 84.992-25.088-38.4-94.72-57.344-134.656-57.344 25.6 45.056 73.216 105.472 131.072 90.624-1.536 30.72 4.096 60.928 14.848 88.576h-153.6v49.152h37.888v0.512z m609.792-471.04l-61.952 108.544-30.72-116.224-31.232-116.224 102.912 58.88 120.832-40.96v85.504l-99.84 20.48zM623.104 414.72c11.776-24.064 28.672-38.912 53.76-47.616l-15.36-43.008c-36.352 13.312-62.464 35.84-79.36 70.656l40.96 19.968z m-20.48 91.136l-45.568-4.608c2.048-19.456 4.608-39.424 8.704-58.368l44.544 9.728c-4.096 17.92-6.144 35.84-7.68 53.248z m-45.056-259.584l-28.16-35.84c25.6-20.48 55.296-36.864 86.016-48.128l15.36 43.008c-26.112 9.728-51.712 23.552-73.216 40.96z m28.672 84.48l-31.744-33.28c24.064-23.04 54.784-40.96 84.48-55.296l13.312 45.056c-23.552 11.776-46.592 25.088-66.048 43.52z m-61.44 175.104l-45.568-1.024V477.184l45.568 3.584V505.856zM441.344 313.856l-36.352 5.632c-1.536-4.608-3.584-7.68-5.12-9.728-6.144-7.68-23.552-8.704-30.208-1.024-1.536 2.048-2.56 4.608-2.56 7.168 0 3.072 1.024 5.12 2.56 7.68 1.536 2.048 4.608 4.096 8.704 5.12l14.336 3.584c19.968 5.12 32.768 10.752 39.424 16.384 8.704 7.68 13.312 17.92 13.312 29.696 0 7.168-1.536 13.312-4.608 19.456-3.072 5.632-7.168 10.752-12.288 14.848-5.12 4.096-10.24 6.656-15.872 8.704-5.632 2.048-12.288 3.072-20.48 3.072v18.432H378.88v-18.432c-9.728-1.024-17.408-2.56-23.04-4.608-6.144-2.048-11.264-5.12-15.36-9.216-4.096-4.096-7.68-8.192-10.24-12.8-2.56-4.608-4.096-10.24-5.12-16.384l39.424-4.608c1.024 6.144 2.56 11.264 4.608 13.824 7.168 10.24 27.648 11.776 36.352 2.56 2.56-3.072 4.096-6.144 4.096-9.728 0-3.072-1.024-5.632-3.072-8.192-2.048-2.56-6.144-5.12-12.8-7.168l-14.848-3.584c-13.312-3.584-22.528-6.656-27.648-9.216-5.632-2.56-10.24-7.168-14.336-12.8-4.096-6.144-6.144-12.8-6.144-21.504 0-11.776 4.096-20.992 12.288-29.184 8.192-7.68 19.968-12.288 35.84-12.8v-9.728h14.336v9.728c14.336 1.024 25.6 4.096 33.28 10.24s12.8 14.336 14.848 24.576zM386.56 256.512c54.784 0 98.816 44.544 98.816 98.816 0 54.784-44.544 98.816-98.816 98.816-54.784 0-98.816-44.544-98.816-98.816-0.512-54.272 44.032-98.816 98.816-98.816z"  /></svg>