<?xml version="1.0" standalone="no"?><!DOCTYPE svg PUBLIC "-//W3C//DTD SVG 1.1//EN" "http://www.w3.org/Graphics/SVG/1.1/DTD/svg11.dtd"><svg t="1599706445233" class="icon" viewBox="0 0 1024 1024" version="1.1" xmlns="http://www.w3.org/2000/svg" p-id="9536" xmlns:xlink="http://www.w3.org/1999/xlink" width="200" height="200"><defs><style type="text/css"></style></defs><path d="M682.697195 859.707167 242.160807 859.707167c-12.152784 0-22.025643-9.893324-22.025643-22.026666 0-12.130272 9.872858-22.025643 22.025643-22.025643l440.537412 0c12.130272 0 22.025643 9.895371 22.025643 22.025643C704.723861 849.813842 694.82849 859.707167 682.697195 859.707167z" p-id="9537"></path><path d="M841.773214 158.324912c-12.955056 0-23.51967 10.543124-23.51967 23.520693l0 705.638185c0 12.95608-10.56666 23.520693-23.521716 23.520693L277.262256 911.004483c-38.911218 0-70.564126-31.650861-70.564126-70.564126 0-38.910195 31.652907-70.563102 70.564126-70.563102l423.382707 0c38.911218 0 70.565149-31.652907 70.565149-70.563102L771.210112 134.803195c0-38.911218-31.653931-70.564126-70.565149-70.564126L230.218824 64.23907c-38.911218 0-70.563102 31.652907-70.563102 70.564126l0 705.637162c0 64.823378 52.785204 117.608581 117.606535 117.608581l517.468548 0c38.909172 0 70.563102-31.653931 70.563102-70.565149L865.293907 181.845605C865.293907 168.868035 854.727247 158.324912 841.773214 158.324912zM230.218824 111.281479l470.426139 0c12.955056 0 23.521716 10.543124 23.521716 23.521716l0 564.510958c0 12.955056-10.56666 23.520693-23.521716 23.520693l-423.382707 0c-26.439162 0-50.90232 8.820899-70.564126 23.566742L206.698131 134.803195C206.698131 121.824603 217.241254 111.281479 230.218824 111.281479z" p-id="9538"></path></svg>