<?xml version="1.0" standalone="no"?><!DOCTYPE svg PUBLIC "-//W3C//DTD SVG 1.1//EN" "http://www.w3.org/Graphics/SVG/1.1/DTD/svg11.dtd"><svg t="1599658891059" class="icon" viewBox="0 0 1024 1024" version="1.1" xmlns="http://www.w3.org/2000/svg" p-id="3464" xmlns:xlink="http://www.w3.org/1999/xlink" width="200" height="200"><defs><style type="text/css"></style></defs><path d="M599.080226 541.379268h-258.099419a34.623093 34.623093 0 0 0-34.623092 34.623093v295.870065a34.623093 34.623093 0 0 0 34.623092 34.623092h258.099419a34.623093 34.623093 0 0 0 34.623092-34.623092v-295.870065a34.623093 34.623093 0 0 0-34.623092-34.623093z m9.442661 330.493158a9.442662 9.442662 0 0 1-9.442661 9.442661h-258.099419a9.442662 9.442662 0 0 1-9.442661-9.442661v-295.870065a9.442662 9.442662 0 0 1 9.442661-9.442662h258.099419a9.442662 9.442662 0 0 1 9.442661 9.442662v295.870065z" p-id="3465"></path><path d="M533.006775 784.357838c7.377866-20.962709 12.074017-60.886282-25.230792-113.362301-55.925737-78.625896-113.34971-51.607293-115.754442-50.423813l-4.746511 2.34178-1.649318 5.010906c-1.208661 3.625982-28.61756 89.289809 28.516838 142.961897 33.087086 31.072652 62.548191 37.833598 81.911942 37.833598 11.293423 0 19.074177-2.278829 22.22173-3.399359 9.316759 9.379711 16.707216 16.593904 20.849397 20.597593a3.336407 3.336407 0 0 0 4.759102-0.151083 21.944746 21.944746 0 0 0-0.327346-30.783077 1450.015123 1450.015123 0 0 1-10.5506-10.626141z m-62.611142-118.839045c5.501924 5.501924 11.129751 12.048836 16.845708 20.068804 1.510826 2.127746 2.807618 4.167361 4.167361 6.232156l-13.043463 34.006173-8.573937-9.656696 0.604331-50.650437z m-24.953807-18.557978l-0.465838 39.319244c-13.43376-17.122693-24.273936-32.973774-30.480912-45.752844 7.503768-0.679872 18.293583 0.176263 30.94675 6.4336z m-41.837287 24.903447c10.903127 16.845708 25.369284 35.403686 40.89302 53.73504v0.01259l0.163673 0.188853c0.793184 0.931676 1.548597 1.863352 2.34178 2.782438l-32.394624 1.712269c-10.046992-19.351161-11.910344-40.817479-11.003849-58.43119z m29.989894 82.642175l34.648273-1.825582c3.160144 3.48749 6.257337 6.886848 9.37971 10.248436l9.417482 10.613551 0.138492-0.352526c3.361588 3.563031 6.685404 7.075701 9.883319 10.412109-13.358219 0.251804-36.058377-4.242903-63.467276-29.095988z m78.751798 8.485805c-4.947955-5.212349-9.996631-10.588371-15.095668-16.102886l9.593744-25.041939c6.169206 16.896069 6.823897 30.707536 5.501924 41.144825z" p-id="3466"></path><path d="M711.095373 445.429235c-15.120849-82.491092-63.517637-136.037279-84.820282-155.224767-4.998316-4.507297-5.161988-10.852766-5.161988-17.399678v-49.139611c12.590216-5.967762 25.180431-20.585002 25.180431-38.752683v-15.73777c0-23.871049-23.468162-43.285161-47.32662-43.285161h-17.475219c0.56656-4.431756 1.032398-8.876102 1.032397-13.383399 0-59.438408-49.466957-107.810016-110.252517-107.810016s-110.252517 48.359018-110.252518 107.810016c0 4.494707 0.491018 8.939053 1.044988 13.383399h-17.487809c-23.871049 0-39.231112 19.414112-39.231112 43.285161v15.73777c0 21.453727 12.590216 37.909139 37.770647 41.044102v46.659339c0 6.622453-5.653007 13.018283-10.752044 17.53817-21.655171 19.187488-74.987324 72.721085-90.108173 155.275128-15.611867 85.197989-5.741138 397.611597-0.478428 527.983279C243.872475 999.423899 264.407116 1019.807458 290.431092 1019.807458h370.882569a48.220525 48.220525 0 0 0 48.296067-46.231271c5.653007-130.359092 17.122693-442.78529 1.485645-528.146952zM472.284165 29.901762c46.911143 0 85.072086 37.065595 85.072086 82.629584 0 4.519887-0.440658 8.976824-1.18348 13.3834H388.382969a80.489248 80.489248 0 0 1-1.17089-13.3834c0-45.56399 38.160943-82.629585 85.072086-82.629584zM331.538146 184.925086v-15.73777c0-9.971451 4.06664-18.10473 14.05068-18.10473h253.378088c9.984041 0 22.146189 8.120689 22.146189 18.10473v15.73777c0 9.971451-12.162148 16.530953-22.146189 16.530953H345.588826c-9.984041-0.01259-14.050681-6.559502-14.05068-16.530953z m352.903741 787.568342A23.077865 23.077865 0 0 1 661.313661 994.627027H290.431092c-12.464313 0-22.637208-9.770007-23.153406-22.246911-4.07923-101.04907-16.178427-437.384088-0.604331-522.418403 13.710745-74.836241 63.719081-123.510014 83.410178-140.960053 10.48765-9.291579 19.237849-22.561666 19.237849-36.385723V226.62388h226.62388v46.18091c0 13.660384 3.185325 26.829749 13.484121 36.108738 19.376342 17.462629 64.537445 66.161583 78.27337 141.060775 15.586687 85.160218 1.133119 421.470055-3.260866 522.519125z" p-id="3467"></path></svg>