<?xml version="1.0" standalone="no"?><!DOCTYPE svg PUBLIC "-//W3C//DTD SVG 1.1//EN" "http://www.w3.org/Graphics/SVG/1.1/DTD/svg11.dtd"><svg t="1599706442368" class="icon" viewBox="0 0 1024 1024" version="1.1" xmlns="http://www.w3.org/2000/svg" p-id="9383" xmlns:xlink="http://www.w3.org/1999/xlink" width="200" height="200"><defs><style type="text/css"></style></defs><path d="M393.677151 382.629537c2.333138-2.333138 3.961218-5.101181 4.89652-8.042163l7.214309-26.53433c0.948605-3.488451-2.25025-6.687306-5.739724-5.739724l-26.53433 7.214309c-3.258207 1.036609-6.304589 2.922563-8.782014 5.676279-6.961552 7.738241-6.702656 19.807115 0.571005 27.253714C373.076974 390.416897 385.832486 390.474202 393.677151 382.629537z" p-id="9384"></path><path d="M330.454224 411.907351l-26.53433 7.214309c-3.258207 1.036609-6.304589 2.923586-8.782014 5.677303-6.961552 7.738241-6.702656 19.807115 0.571005 27.253714 7.774057 7.959276 20.529569 8.016581 28.374234 0.171915 2.333138-2.333138 3.961218-5.101181 4.89652-8.042163l7.214309-26.53433C337.142553 414.158624 333.942675 410.958746 330.454224 411.907351z" p-id="9385"></path><path d="M260.860193 481.502405l-26.53433 7.214309c-3.258207 1.036609-6.304589 2.923586-8.78099 5.677303-6.962575 7.738241-6.702656 19.807115 0.569982 27.253714 7.774057 7.959276 20.529569 8.016581 28.374234 0.171915 2.333138-2.333138 3.961218-5.101181 4.89652-8.042163l7.214309-26.53433C267.547499 483.752656 264.348644 480.553801 260.860193 481.502405z" p-id="9386"></path><path d="M471.237621 414.514735l-21.695115 16.894785c-2.606361 2.213411-4.687766 5.129834-5.910617 8.625448-3.436262 9.825786 1.461281 20.859074 11.04352 24.921599 10.243295 4.342912 22.031782-0.527003 26.242687-10.791787 1.251503-3.052522 1.685385-6.235005 1.414209-9.309016l-3.584642-27.262924C478.275921 414.010245 474.090599 412.293137 471.237621 414.514735z" p-id="9387"></path><path d="M433.891038 505.575684l-21.695115 16.894785c-2.606361 2.213411-4.687766 5.129834-5.910617 8.625448-3.436262 9.825786 1.461281 20.859074 11.04352 24.922622 10.243295 4.342912 22.031782-0.527003 26.242687-10.791787 1.251503-3.051499 1.685385-6.233981 1.414209-9.307993l-3.584642-27.262924C440.929338 505.071194 436.742992 503.354086 433.891038 505.575684z" p-id="9388"></path><path d="M396.544455 596.635609l-21.695115 16.894785c-2.606361 2.213411-4.687766 5.129834-5.910617 8.625448-3.436262 9.825786 1.460258 20.859074 11.04352 24.922622 10.243295 4.342912 22.031782-0.527003 26.242687-10.791787 1.251503-3.052522 1.685385-6.233981 1.414209-9.309016l-3.584642-27.262924C403.582755 596.131119 399.396409 594.414011 396.544455 596.635609z" p-id="9389"></path><path d="M308.065308 304.46941c3.495614-1.222851 6.41306-3.304256 8.625448-5.910617l16.894785-21.695115c2.221598-2.851954 0.50449-7.0383-3.080152-7.510044l-27.262924-3.584642c-3.074012-0.272199-6.256494 0.162706-9.309016 1.414209-10.264784 4.209882-15.134699 15.999392-10.791787 26.242687C287.207257 303.009152 298.240545 307.905672 308.065308 304.46941z" p-id="9390"></path><path d="M242.526639 314.210261c2.220574-2.851954 0.503467-7.0383-3.080152-7.510044l-27.262924-3.584642c-3.074012-0.272199-6.256494 0.161682-9.309016 1.413186-10.264784 4.209882-15.134699 15.999392-10.791787 26.242687 4.063549 9.583263 15.096836 14.480806 24.922622 11.04352 3.495614-1.221828 6.412037-3.304256 8.625448-5.910617L242.526639 314.210261z" p-id="9391"></path><path d="M148.386562 344.0468l-27.262924-3.584642c-3.074012-0.272199-6.256494 0.161682-9.309016 1.414209-10.264784 4.209882-15.134699 15.999392-10.791787 26.241664 4.062526 9.583263 15.096836 14.480806 24.921599 11.04352 3.495614-1.221828 6.412037-3.304256 8.625448-5.910617l16.894785-21.695115C153.687288 348.70489 151.971204 344.518544 148.386562 344.0468z" p-id="9392"></path><path d="M659.927097 120.705106c-37.323047 0-73.470315 7.697309-107.432825 22.884197-4.78191 2.13871-8.873088 5.117554-12.546757 8.463766-6.347568-1.829671-12.975523-3.000334-19.857257-3.243881l-95.407953-3.377934-99.413174-3.520173c-25.911136-0.916882-39.533388 30.390147-21.199835 48.723701l126.699634 126.699634 126.699634 126.699634c18.333554 18.332531 49.640584 4.711302 48.723701-21.199835l-3.520173-99.413174-3.372817-95.268784c19.338441-7.541767 39.652092-11.580756 60.628846-11.580756 93.088118 0 168.815847 75.726705 168.815847 168.815847l0 469.976908c0 26.472931 21.459754 47.932686 47.932686 47.932686s47.932686-21.459754 47.932686-47.932686L924.609339 385.385301C924.608316 239.444441 805.868981 120.705106 659.927097 120.705106z" p-id="9393"></path></svg>