<?xml version="1.0" standalone="no"?><!DOCTYPE svg PUBLIC "-//W3C//DTD SVG 1.1//EN" "http://www.w3.org/Graphics/SVG/1.1/DTD/svg11.dtd"><svg t="1599653017755" class="icon" viewBox="0 0 1024 1024" version="1.1" xmlns="http://www.w3.org/2000/svg" p-id="960" xmlns:xlink="http://www.w3.org/1999/xlink" width="200" height="200"><defs><style type="text/css"></style></defs><path d="M722.378451 64.794725 301.620525 64.794725c-35.797297 0-64.916499 29.122271-64.916499 64.916499l0 764.576529c0 35.795251 29.119201 64.916499 64.916499 64.916499l420.757926 0c35.797297 0 64.916499-29.122271 64.916499-64.916499L787.29495 129.711224C787.295973 93.915973 758.175749 64.794725 722.378451 64.794725zM301.620525 98.455359l420.757926 0c17.234523 0 31.255865 14.022365 31.255865 31.255865l0 88.960101L270.364661 218.671325l0-88.960101C270.364661 112.477724 284.387026 98.455359 301.620525 98.455359zM753.635339 252.331959l0 495.291456L270.364661 747.623415 270.364661 252.331959 753.635339 252.331959zM722.378451 925.544641 301.620525 925.544641c-17.234523 0-31.255865-14.022365-31.255865-31.255865l0-113.003703 483.270678 0 0 113.003703C753.635339 911.522276 739.612974 925.544641 722.378451 925.544641z" p-id="961"></path><path d="M443.476347 170.585143l141.855822 0c9.293667 0 16.830317-7.534604 16.830317-16.830317 0-9.295714-7.53665-16.830317-16.830317-16.830317L443.476347 136.924509c-9.293667 0-16.830317 7.534604-16.830317 16.830317C426.64603 163.05054 434.18268 170.585143 443.476347 170.585143z" p-id="962"></path><path d="M513.202385 790.902104c-35.797297 0-64.916499 29.122271-64.916499 64.916499s29.119201 64.916499 64.916499 64.916499 64.916499-29.122271 64.916499-64.916499S548.999682 790.902104 513.202385 790.902104zM513.202385 887.075491c-17.234523 0-31.255865-14.022365-31.255865-31.255865 0-17.234523 14.022365-31.255865 31.255865-31.255865 17.234523 0 31.255865 14.022365 31.255865 31.255865C544.458249 873.053126 530.435884 887.075491 513.202385 887.075491z" p-id="963"></path></svg>