<?xml version="1.0" standalone="no"?><!DOCTYPE svg PUBLIC "-//W3C//DTD SVG 1.1//EN" "http://www.w3.org/Graphics/SVG/1.1/DTD/svg11.dtd"><svg t="1599658887390" class="icon" viewBox="0 0 1024 1024" version="1.1" xmlns="http://www.w3.org/2000/svg" p-id="3319" xmlns:xlink="http://www.w3.org/1999/xlink" width="200" height="200"><defs><style type="text/css"></style></defs><path d="M644.6592 576.22528h-2.00192V378.29632c0-21.20192-15.06816-38.8864-34.52416-41.91744l0.01536-1.25952V109.07648c0-25.74848-18.24768-51.0976-34.01216-51.0976 0 0-21.65248 0-34.98496 3.3792-43.24864 10.15296-119.84896 74.40896-119.84896 136.02304v137.74336c0 0.37376 0.01536 0.74752 0.01536 1.11616-19.98336 2.52928-35.59936 20.46976-35.59936 42.05056v197.93408l-7.51616 0.22528c-32.64512 0-59.3664 29.21472-59.3664 61.82912v286.3104c0 32.6144 26.71616 59.29984 59.3664 59.29984l271.58016-0.22528c32.65024 0 59.36128-26.68544 59.36128-59.29472v-286.3104c0.01024-32.61952-26.71104-61.83424-59.36128-61.83424h-3.1232zM450.10944 381.94176h132.21888c10.53696 0 19.14368 9.02656 19.14368 20.06016v154.18368c0 11.03872-8.61184 20.0704-19.14368 20.0704H446.33088c-10.53696 0-19.15904-9.03168-19.15904-20.0704V402.00704c0-11.03872 8.62208-20.06016 19.15904-20.06016h3.77856v-0.00512zM540.48256 114.176c13.60896-2.67264 14.52032-1.0752 14.52032-1.0752 7.45984 0 8.7808 9.984 8.7808 22.1696v170.85952c0 9.92256 2.81088 29.66016-9.97888 29.66016h-77.2096c-10.29632-1.0496-12.38016-13.9008-12.38016-29.66016 0 0-0.12288-87.74144-0.12288-110.3104-0.00512-22.56384 64.66048-79.34464 76.3904-81.64352z m117.31968 788.05504c0 17.59232-14.40768 31.98976-32.02048 31.98976H398.42304c-17.60768 0-32.02048-14.40256-32.02048-31.98976l-0.22016-244.54144c0-17.60256 14.4128-31.98976 32.02048-31.98976h227.3536c17.6128 0 32.0256 14.39232 32.0256 31.98976l0.22016 244.54144z" p-id="3320"></path><path d="M401.7152 694.23104l0.34304 176.57856c0.06656 31.8464 49.44384 31.85152 49.3824 0-0.10752-58.8544-0.22528-117.71904-0.34816-176.57856-0.05632-31.84128-49.43872-31.84128-49.37728 0z" p-id="3321"></path></svg>