<?xml version="1.0" standalone="no"?><!DOCTYPE svg PUBLIC "-//W3C//DTD SVG 1.1//EN" "http://www.w3.org/Graphics/SVG/1.1/DTD/svg11.dtd"><svg class="icon" width="200px" height="200.00px" viewBox="0 0 1024 1024" version="1.1" xmlns="http://www.w3.org/2000/svg"><path fill="#333333" d="M959.3 485.8c-0.9-8.8-8.5-15-17.6-14.4-35.5 3.6-53.2 20.2-67.7 37.5-24.5-2.4-49.9 3.9-67.9 9.6-1.2-6.3-2.4-12.6-4.1-19l-9.3-26.1-1.1-2.4c-45.1-81.3-117.2-133.2-214.4-156.4 8.9-17.5 14.1-37.2 14.1-58.1 0-70.6-57.4-128-128-128s-128 57.4-128 128c0 22.7 6 43.9 16.3 62.4-5.5 1.7-10.9 3.5-16.1 5.3-10.4 3.7-20.3 7.1-28.2 7.9-5 0.5-10.7-0.5-17.1-1.7-5.4-1-10.7-1.9-15.8-2.1-7.4-0.4-14.8-0.6-22.2-0.6-55.6 0-102.8 11.4-136.6 33l-9.6 6.1 2.7 11.1c9.9 41.2 36.2 65.1 59.9 80-0.8 1-1.5 2-2.3 3.1-6.6 8.8-14.1 18.7-19.6 32.2-3.9 9.6-6.5 18.8-9 27.7-5.9 21-9.8 33.2-23.3 41-3.5 2-8.4 3.1-13.5 4.3-12.4 2.8-31.2 7-37 30l-0.5 17 0.2 2.7C74 677.5 95.7 740.6 176.8 743.1c21.3 32.8 50.3 55.9 75.2 72.9 0.2 22.4-1.7 42.6-3.8 64.5l-1.7 17.6h115.6l2.6-0.9c21.5-7.7 29.8-26.9 36.6-42.3 0.9-2 1.7-3.9 2.6-5.8 12.8 1.5 27.2 2.2 43.7 2.2 21.8 0 43.9-1.3 63.4-2.4 2.5-0.1 5-0.3 7.5-0.4-0.4 3.7-0.8 7.4-1.3 11.2-0.9 6.8-1.8 13.9-2.1 21.9l-0.5 16.5h115l3-1.3c18.1-7.8 33.8-28.1 49-47.7 4.4-5.7 8.7-11.3 13-16.5 63.7-76.6 125-168.6 116-281.6 17.4-5.7 32.4-9.2 44.9-10.3-3.2 10-4.9 21.1-5.2 34.4-0.4 16.8 9.1 30.8 25.4 37.4 6.4 2.6 13.3 3.8 20 3.8 13.8 0 27.2-5.1 35.9-14.6 5.7-6.2 17.6-23.7 3.6-51.7-7.1-14.3-16.7-24.1-27.6-30.5 9-8.6 19.3-14.3 37-16 9.1-1 15.5-8.9 14.7-17.7zM463.2 160.6c52.9 0 95.9 43 95.9 95.9 0 52.9-43 95.9-95.9 95.9-52.9 0-95.9-43-95.9-95.9 0-52.9 43-95.9 95.9-95.9zM670 812c-4.6 5.5-9.1 11.4-13.8 17.4-11.1 14.4-23.6 30.6-33.7 36.5h-73.9l0.3-2.1c1.3-10 2.7-20.3 1.9-33.2l-0.9-15.7-15.7 0.7c-7.7 0.3-16.1 0.8-25 1.3-19.1 1.1-40.7 2.3-61.6 2.3-20 0-36.4-1.1-50.1-3.4l-10.7-1.8-5.6 9.3c-3.7 6.1-6.5 12.5-9.2 18.7-5.4 12.3-9.2 20.4-15.8 24h-74.3c1.6-18.5 2.9-37.9 2.2-59.2l-0.3-8.3-6.9-4.6c-25.3-16.7-56.9-40.4-77.2-75l-4.8-8.2-12.9 0.3c-57.6 0-76-37.9-86.5-99.2v-9.4c0.8-1.8 2.9-2.8 12.5-5 6.6-1.5 14.7-3.3 22.4-7.8 25.5-14.7 32.3-38.8 38.2-60.1 2.2-8 4.5-16.3 7.8-24.2 3.9-9.6 9.6-17.1 15.5-25 4.6-6.1 9.3-12.4 13.5-19.9l8-14.3-14.5-7.7c-29.3-15.4-46.9-33.2-55.6-56.7 27.9-14.4 65.2-21.9 109-21.9 6.8 0 13.6 0.2 20.5 0.5 3.8 0.2 7.8 0.9 11.9 1.7 7.8 1.4 17.2 3 26.2 2 11.5-1.3 23.6-5.5 35.3-9.5 8.1-2.8 16.6-5.8 24.5-7.6 0.6-0.1 1.3-0.2 1.9-0.4 7 7.1 14.9 13.2 23.3 18.5-3.9 0.8-8.1 1.3-11.8 2.3-4.4 1.1-17.1 3.2-21.3 4.5-8.5 2.6-13.3 11.5-10.7 20 2.1 6.9 8.5 11.4 15.3 11.4 1.5 0 3.1-0.2 4.6-0.7 3.7-1.1 15.9-3.1 19.8-4.1 39.3-9.8 86.8-11.9 130.3-5.8 9.2 1.3 29.1 5.4 37.6 7.3 8.6 2.1 17.3-3.3 19.3-11.9 2.1-8.6-3.2-17.5-11.9-19.3-7.7-1.6-16.4-5.1-31.9-6.3 8.3-5.6 15.7-12.2 22.5-19.6 94.5 19.1 162.4 65.6 205.5 142.5l8.5 23.5C803 630.2 741.3 726.3 670 812z m238.3-232.1c-3.9 4.2-13.5 5.5-20.3 2.7-5.5-2.2-5.4-5.3-5.4-7 0.3-13.7 2.3-23 5.6-30.6 8.1 4 14.1 10.4 18.5 19.2 2.1 4.3 5.1 11.9 1.6 15.7zM428.9 282.7l-10.5 14.5c8.5 8.8 20.8 15.3 37.2 16.6v15.4H472v-16c21.3-3.2 31.1-16.8 31.1-32.2 0-19.9-15.5-26.6-31.1-30.9v-27.6c6.5 1.9 12.8 5.2 18 10.4l10.5-13.9c-7.5-7.2-17.2-11.9-28.5-13.9v-17h-3.6v-0.4h-12.8v16.5c-20.6 1.8-33.7 14.7-33.7 31 0 20.8 17.3 26.7 33.7 30.8v31c-11.5-1.7-20.8-7.8-26.7-14.3z m43-12c6.9 2.6 11.9 6 11.9 12.2 0 5.5-3.5 11.2-11.9 13.6v-25.8zM441 233.8c0-7 5.6-12 14.5-13.1v25.1c-8.4-2.6-14.5-5.8-14.5-12zM246 480.4c-27.4 0-49.7 22.3-49.7 49.7 0 27.4 22.3 49.7 49.7 49.7 27.4 0 49.7-22.3 49.7-49.7 0-27.4-22.3-49.7-49.7-49.7z m0 67.2c-9.7 0-17.6-7.9-17.6-17.6s7.9-17.6 17.6-17.6c9.7 0 17.6 7.9 17.6 17.6s-7.9 17.6-17.6 17.6z" /></svg>