<?xml version="1.0" standalone="no"?><!DOCTYPE svg PUBLIC "-//W3C//DTD SVG 1.1//EN" "http://www.w3.org/Graphics/SVG/1.1/DTD/svg11.dtd"><svg t="1599653023873" class="icon" viewBox="0 0 1024 1024" version="1.1" xmlns="http://www.w3.org/2000/svg" p-id="1106" xmlns:xlink="http://www.w3.org/1999/xlink" width="200" height="200"><defs><style type="text/css"></style></defs><path d="M271.488 190.896a16 16 0 0 1 16 16v188.32c0 33.696 20.912 63.36 51.6 74.544 8.704 3.168 14.736 11.152 15.632 20.368l0.112 2.336 0.368 296.448c0 6.032 4.608 10.8 10.112 10.8 4.992 0 9.248-3.936 9.984-9.232l0.112-1.632 0.768-296.416a24.128 24.128 0 0 1 15.648-22.64c29.408-10.848 49.792-38.848 51.2-70.976l0.096-3.584v-188.32a16 16 0 0 1 16-16h15.488a16 16 0 0 1 16 16v188.32c0 46.512-24.736 88.352-62.944 110.688l-4.048 2.24-0.72 280.752c0 31.504-24.064 57.376-54.528 59.008l-3.056 0.08c-30.88 0-55.936-24.848-57.52-55.936l-0.08-3.12-0.368-280.72c-39.488-21.008-65.664-62.096-67.264-108.48L240 395.216v-188.32a16 16 0 0 1 16-16h15.488z m387.2-14.896C730.16 176 784 255.088 784 349.328c0 64.736-25.504 123.424-66.144 153.168l-1.584 1.088 0.016 285.84c0 31.312-24.144 56.88-54.528 58.496l-3.072 0.08c-31.808 0-57.6-26.224-57.6-58.56V503.552l-1.568-1.088c-39.472-28.896-64.656-85.104-66.08-147.616l-0.048-5.536c0-94.24 53.84-173.328 125.296-173.328z m0 48.288c-40.704 0-77.808 54.496-77.808 125.04 0 55.328 23.264 102.816 54.752 119.168l1.92 1.12c6.832 4.4 11.04 12.08 11.04 20.384V789.44c0 5.68 4.528 10.288 10.096 10.288a10.192 10.192 0 0 0 10.112-10.288V490.016c0-9.072 4.992-17.376 12.96-21.504 31.488-16.352 54.752-63.84 54.752-119.2 0-70.528-37.104-125.024-77.824-125.024z m-285.232-31.584a16 16 0 0 1 16 16V390.88a16 16 0 0 1-16 16h-16.304a16 16 0 0 1-16-16V208.704a16 16 0 0 1 16-16h16.304z" p-id="1107"></path></svg>