<?xml version="1.0" standalone="no"?><!DOCTYPE svg PUBLIC "-//W3C//DTD SVG 1.1//EN" "http://www.w3.org/Graphics/SVG/1.1/DTD/svg11.dtd"><svg class="icon" width="200px" height="200.00px" viewBox="0 0 1024 1024" version="1.1" xmlns="http://www.w3.org/2000/svg"><path fill="#333333" d="M515.03 857.61c-12.7 0-22.99-10.3-22.99-22.99 0-12.69 10.29-22.99 22.99-22.99 169.09 0 306.66-137.57 306.66-306.66S684.13 198.32 515.03 198.32c-169.09 0-306.65 137.57-306.65 306.66 0 64.69 19.9 126.56 57.55 178.89 7.41 10.31 5.07 24.66-5.24 32.08-10.32 7.39-24.67 5.06-32.08-5.24-43.31-60.2-66.2-131.34-66.2-205.73 0-194.44 158.18-352.63 352.62-352.63s352.63 158.19 352.63 352.63-158.19 352.63-352.63 352.63z"  /><path fill="#333333" d="M311.31 847.61c-6.85 0-13.52-1.14-19.73-3.46-16.92-6.32-28.89-20.76-32.85-39.63-24.25-115.29-16.91-156.64-16-160.97 0.13-0.61 0.29-1.23 0.47-1.84 1.61-5.36 40.87-131.49 172.11-137.3 66.32-2.77 119.93 36.35 155.2 113.63 24.92 54.58 31.93 109.15 32.22 111.46 0.86 6.85-1.41 13.72-6.19 18.72-4.77 5-11.51 7.54-18.42 7.03-1.03 0.01-112.21-7.09-222.48 76.66-13.52 10.27-29.33 15.7-44.33 15.7z m-23.66-193.97c-0.78 6.43-4.06 45.75 16.06 141.43 1.04 4.94 3 5.67 3.94 6.02 4.06 1.53 12.1 0.34 20.19-5.78 90.08-68.43 179.67-83.04 224.51-85.72-11.49-51.66-46.61-163.16-135-159.25-92.86 4.11-125.74 91.66-129.7 103.3z"  /><path fill="#333333" d="M699.37 473.01m-52.51 0a52.51 52.51 0 1 0 105.02 0 52.51 52.51 0 1 0-105.02 0Z"  /><path fill="#333333" d="M266.66 460.51m-44.82 0a44.82 44.82 0 1 0 89.64 0 44.82 44.82 0 1 0-89.64 0Z"  /><path fill="#333333" d="M395.68 898.13c-6.95 0-13.83-1.5-20.36-5.58-6.65-4.15-15.07-12.59-17.46-29.24-0.74-5.18-1.2-10.79-1.65-16.64-0.86-11.07-1.74-22.52-5.42-31.73-4.71-11.78 1.02-25.16 12.81-29.87 11.78-4.73 25.16 1.02 29.87 12.81 6.29 15.71 7.55 32.08 8.57 45.24 0.2 2.63 0.4 5.19 0.64 7.68 3.28-0.9 7.03-2.11 9.97-3.07l7.8-2.47c98.3-29.88 137.92-120.97 138.31-121.9 4.95-11.69 18.46-17.12 30.13-12.18 11.69 4.95 17.15 18.45 12.19 30.14-1.93 4.55-48.62 111.86-167.27 147.94l-7.01 2.21c-9.9 3.2-20.59 6.66-31.12 6.66zM515.06 574.59c-0.83 0-1.67-0.04-2.51-0.13-12.62-1.36-21.74-12.71-20.37-25.34 0.99-9.07 25.87-222.72 178.11-257.5 96.54-22.16 162.16 65.98 183.35 115.63 4.98 11.67-0.43 25.17-12.11 30.17-11.68 4.98-25.19-0.43-30.17-12.12-1.89-4.35-47.56-107.79-130.84-88.88C559.87 364 538.09 552.19 537.88 554.09c-1.27 11.78-11.23 20.5-22.82 20.5zM361.94 548.65c-12.68 0-22.97-10.28-22.99-22.97-0.03-28.54-6.49-111.28-35.56-150.83-26.17-35.63-43.55-33.97-43.67-33.94 1.2-0.15 1.8-0.46 1.8-0.46l-14.01-43.79c4.59-1.45 46.27-12.54 92.92 50.97 43.97 59.83 44.47 173.23 44.47 178.03 0 12.69-10.28 22.97-22.97 22.99h0.01z"  /></svg>