<?xml version="1.0" standalone="no"?><!DOCTYPE svg PUBLIC "-//W3C//DTD SVG 1.1//EN" "http://www.w3.org/Graphics/SVG/1.1/DTD/svg11.dtd"><svg class="icon" width="200px" height="200.00px" viewBox="0 0 1024 1024" version="1.1" xmlns="http://www.w3.org/2000/svg"><path fill="#333333" d="M396.24 502.47m-41.91 0a41.91 41.91 0 1 0 83.82 0 41.91 41.91 0 1 0-83.82 0Z"  /><path fill="#333333" d="M615.18 502.47m-41.91 0a41.91 41.91 0 1 0 83.82 0 41.91 41.91 0 1 0-83.82 0Z"  /><path fill="#333333" d="M504.6 863.45c-216.57 0-348.06-211.65-348.06-304.73 0-177.6 156.14-322.1 348.06-322.1s348.06 144.5 348.06 322.1c0 91.13-118.42 304.73-348.06 304.73z m0-577.28c-164.6 0-298.51 122.26-298.51 272.55 0 73.6 118.97 255.18 298.51 255.18 193.9 0 298.51-181.13 298.51-255.18 0-150.29-133.91-272.55-298.51-272.55z"  /><path fill="#333333" d="M181.3 583.5c-13.19 0-24.16-10.4-24.73-23.71l-15.63-360.94c-0.4-9.23 4.37-17.9 12.37-22.52a24.7 24.7 0 0 1 25.69 0.56l166.11 105.86c11.54 7.35 14.93 22.66 7.58 34.19-7.35 11.55-22.64 14.94-34.21 7.58L192.5 244.25l13.57 313.4c0.6 13.66-10.01 25.23-23.68 25.82-0.36 0.03-0.72 0.03-1.09 0.03zM830.12 583.5c-0.36 0-0.73 0-1.09-0.02-13.67-0.6-24.27-12.16-23.68-25.82l13.57-313.4-125.98 80.27c-11.56 7.34-26.86 3.95-34.21-7.56-7.35-11.55-3.96-26.85 7.58-34.21l166.1-105.86c7.8-5 17.7-5.21 25.69-0.56 8 4.61 12.77 13.29 12.37 22.52L854.84 559.8c-0.56 13.29-11.53 23.7-24.72 23.7zM911.81 790.16c-2 0-4.04-0.24-6.06-0.76l-234.1-58.97c-13.27-3.34-21.31-16.81-17.98-30.06 3.34-13.26 16.85-21.34 30.07-17.97l234.1 58.97c13.27 3.34 21.31 16.81 17.98 30.06-2.83 11.25-12.92 18.73-24.01 18.73zM116.13 790.16c-11.09 0-21.18-7.48-24.01-18.73-3.34-13.26 4.7-26.73 17.98-30.06l234.1-58.97c13.23-3.42 26.73 4.69 30.07 17.97 3.34 13.26-4.7 26.73-17.98 30.06l-234.1 58.97c-2.02 0.52-4.06 0.76-6.06 0.76zM340.67 633.18H40.23c-13.69 0-24.77-11.1-24.77-24.77 0-13.68 11.09-24.77 24.77-24.77h300.44c13.69 0 24.77 11.1 24.77 24.77s-11.09 24.77-24.77 24.77zM984.31 633.18H683.87c-13.69 0-24.77-11.1-24.77-24.77 0-13.68 11.09-24.77 24.77-24.77h300.44c13.69 0 24.77 11.1 24.77 24.77s-11.09 24.77-24.77 24.77z"  /><path fill="#333333" d="M510.89 576.08m-33.31 0a33.31 33.31 0 1 0 66.62 0 33.31 33.31 0 1 0-66.62 0Z"  /><path fill="#333333" d="M454.4 690.66c-44.81 0-81.27-36.45-81.27-81.27 0-13.68 11.09-24.77 24.77-24.77 13.69 0 24.77 11.1 24.77 24.77 0 17.5 14.23 31.73 31.73 31.73s31.72-14.23 31.72-31.73c0-13.68 11.09-24.77 24.77-24.77s24.77 11.1 24.77 24.77c0.01 44.82-36.45 81.27-81.26 81.27z"  /><path fill="#333333" d="M567.39 690.66c-44.81 0-81.27-36.45-81.27-81.27 0-13.68 11.09-24.77 24.77-24.77s24.77 11.1 24.77 24.77c0 17.5 14.23 31.73 31.73 31.73s31.72-14.23 31.72-31.73c0-13.68 11.09-24.77 24.77-24.77s24.77 11.1 24.77 24.77c0.01 44.82-36.45 81.27-81.26 81.27z"  /></svg>