<?xml version="1.0" standalone="no"?><!DOCTYPE svg PUBLIC "-//W3C//DTD SVG 1.1//EN" "http://www.w3.org/Graphics/SVG/1.1/DTD/svg11.dtd"><svg class="icon" width="200px" height="200.00px" viewBox="0 0 1024 1024" version="1.1" xmlns="http://www.w3.org/2000/svg"><path fill="#333333" d="M542.84 953.45c-0.52 0-1.04-0.01-1.57-0.03l-62.01-0.1c-18.2-0.67-33.24-12.72-37.7-29.44-3.39-1.66-7.44-4.04-11.49-8.01h-40.34c-125.8 0-220.66-87-220.66-202.38 0-56.33 25.09-135.73 143.59-196.32 7.03-101.06 89.77-172.99 201.9-172.99 107.88 0 181.81 69.12 187.7 173.46C797.45 567.2 845.7 633.07 845.7 713.49c0 115.38-94.86 202.38-220.66 202.38h-33.25c-3.21 4.13-6.89 7.26-11.12 9.47-5.2 16.71-20.29 28.11-37.83 28.11z m-6.31-40.14v0.02-0.02z m5.36-5.85h0.31c-0.1-0.01-0.21-0.01-0.31 0z m-57.23-0.09l52.7 0.07c3-14.56 11.87-20.46 19.5-22.81a22.996 22.996 0 0 1 21.46-14.74h46.73c101.22 0 174.69-65.78 174.69-156.41 0-94.37-91.42-141.15-121.46-156.52-10.62-5.42-21.59-11.03-21.59-25.74 0-85.7-55.78-141.09-142.11-141.09-90.63 0-156.42 59.33-156.42 141.09 0 14.68-11.39 20.31-19.7 24.42-81.89 40.51-123.41 93.6-123.41 157.83 0 90.63 73.47 156.41 174.69 156.41h51.74c8.57 0 16.42 4.77 20.39 12.36 0.13 0.25 0.16 0.39 0.13 0.43 9.14 4.17 17.86 10.08 22.66 24.7z m218-376.13h0.15-0.15z"  /><path fill="#333333" d="M667.5 483.6c-2.6 0-5.23-0.43-7.81-1.36-7.43-2.69-14.07-10.65-15.75-18.38-3.42-15.73 4.58-34.61 55.61-84.61 37.77-37.01 51.79-102.51 44.1-206.12-0.44-6.05-4.95-8.46-6.86-9.2-1.95-0.79-6.97-2.1-11.5 2.07-84.89 78.27-104.68 210.01-104.87 211.33-1.8 12.54-13.53 21.16-26 19.5-12.56-1.8-21.29-13.41-19.51-25.96 0.86-6.05 22.07-149.11 119.23-238.66 16.18-14.93 39.01-19.15 59.54-11.04 20.48 8.1 34.21 26.7 35.83 48.58 5.51 74.33 5.52 180.34-57.78 242.35-28.07 27.51-37.94 40.99-41.32 46.53 0.28 3.23-0.11 6.57-1.29 9.82-3.38 9.33-12.21 15.15-21.62 15.15zM343.2 483.6c-9.41 0-18.23-5.82-21.62-15.17a23.03 23.03 0 0 1-1.29-9.82c-3.37-5.54-13.25-19.02-41.32-46.53-63.29-62.01-63.29-168.02-57.78-242.35 1.63-21.88 15.37-40.49 35.85-48.58 20.58-8.13 43.35-3.88 59.53 11.04 97.15 89.55 118.37 232.61 119.23 238.66 1.77 12.56-6.96 24.17-19.51 25.96-12.47 1.68-24.2-6.93-26-19.5-0.19-1.32-19.99-133.07-104.88-211.33-4.53-4.15-9.53-2.81-11.49-2.08-1.92 0.76-6.42 3.17-6.87 9.22-7.68 103.62 6.34 169.12 44.1 206.12 51.03 50 59.03 68.88 55.61 84.61-1.88 8.62-7.77 15.49-15.75 18.38-2.58 0.94-5.21 1.37-7.81 1.37zM516.62 717.61c-4.65 0-9.31-1.41-13.29-4.23L463.4 685.1c-10.36-7.33-12.8-21.68-5.47-32.04 7.34-10.37 21.68-12.79 32.05-5.46l26.58 18.83 28.15-20.11c10.32-7.38 24.68-5 32.07 5.34 7.38 10.33 4.98 24.69-5.34 32.07l-41.45 29.62c-4 2.83-8.68 4.26-13.37 4.26z"  /><path fill="#333333" d="M453.45 903.11c-5.91 0-11.81-2.26-16.31-6.79-8.94-9.01-8.9-23.55 0.11-32.5l57.09-56.69-0.7-112.35c-0.08-12.71 10.15-23.06 22.84-23.14h0.14c12.63 0 22.9 10.19 22.99 22.84l0.76 122.01c0.04 6.18-2.41 12.11-6.79 16.46l-63.94 63.5a22.946 22.946 0 0 1-16.19 6.66z"  /><path fill="#333333" d="M584.22 915.87c-6.39 0-12.75-2.65-17.29-7.84l-66.82-76.26c-8.37-9.55-7.41-24.06 2.13-32.43 9.54-8.38 24.06-7.44 32.44 2.14l66.82 76.26c8.37 9.55 7.42 24.06-2.13 32.43-4.37 3.83-9.77 5.7-15.15 5.7z"  /><path fill="#333333" d="M593.5 563.03a29.53 44.67 0 1 0 59.06 0 29.53 44.67 0 1 0-59.06 0Z"  /><path fill="#333333" d="M360.25 563.03a29.53 44.67 0 1 0 59.06 0 29.53 44.67 0 1 0-59.06 0Z"  /></svg>