<?xml version="1.0" standalone="no"?><!DOCTYPE svg PUBLIC "-//W3C//DTD SVG 1.1//EN" "http://www.w3.org/Graphics/SVG/1.1/DTD/svg11.dtd"><svg t="1601470124091" class="icon" viewBox="0 0 1024 1024" version="1.1" xmlns="http://www.w3.org/2000/svg" p-id="8365" xmlns:xlink="http://www.w3.org/1999/xlink" width="200" height="200"><defs><style type="text/css"></style></defs><path d="M862.477888 783.313802H245.1349c-18.365155 0-33.308232-14.943077-33.308232-33.308232v-53.612566c0-9.467751 7.642642-17.110393 17.110393-17.110393h558.255097V313.006127c0-9.467751 7.642642-17.110393 17.110393-17.110393H862.363819c18.365155 0 33.308232 14.943077 33.308232 33.308232v420.915673c0 18.251086-14.943077 33.194163-33.194163 33.194163z m-616.316364-34.220787h615.40381V330.11652h-40.038321v350.192715c0 18.365155-14.943077 33.308232-33.308232 33.308232H246.161524v35.475548z m616.316364-418.976495z" p-id="8366"></path><path d="M788.218781 713.503398H170.875794c-18.365155 0-33.308232-14.943077-33.308232-33.308233v-420.915673c0-18.365155 14.943077-33.308232 33.308232-33.308232H788.218781c18.365155 0 33.308232 14.943077 33.308232 33.308232v420.915673c-0.114069 18.365155-14.943077 33.308232-33.308232 33.308233z m-616.316364-34.220787h615.40381V260.306116H171.902417v418.976495zM788.218781 260.306116z" p-id="8367"></path><path d="M689.320708 359.204188H229.051131c-9.467751 0-17.110393-7.642642-17.110394-17.110393s7.642642-17.110393 17.110394-17.110393h460.383647c9.467751 0 17.110393 7.642642 17.110393 17.110393s-7.756712 17.110393-17.224463 17.110393zM305.249415 585.403587c-45.285507 0-82.243957-36.84438-82.243957-82.243957 0-45.285507 36.84438-82.243957 82.243957-82.243957s82.243957 36.84438 82.243957 82.243957-36.958449 82.243957-82.243957 82.243957z m0-130.267127c-26.464075 0-48.02317 21.559095-48.02317 48.02317 0 26.464075 21.559095 48.02317 48.02317 48.02317s48.02317-21.559095 48.02317-48.02317c0-26.464075-21.559095-48.02317-48.02317-48.02317z" p-id="8368"></path></svg>