<?xml version="1.0" standalone="no"?><!DOCTYPE svg PUBLIC "-//W3C//DTD SVG 1.1//EN" "http://www.w3.org/Graphics/SVG/1.1/DTD/svg11.dtd"><svg t="1601381291659" class="icon" viewBox="0 0 1024 1024" version="1.1" xmlns="http://www.w3.org/2000/svg" p-id="4273" xmlns:xlink="http://www.w3.org/1999/xlink" width="200" height="200"><defs><style type="text/css"></style></defs><path d="M699.456904 272.707009c21.340027-27.111474 33.708729-56.981782 33.708729-85.149309 0-45.924959-28.65769-123.007545-220.758869-123.007545-82.418105 0-220.759893 15.977903-220.759893 123.007545 0 28.167526 12.369725 58.037834 33.709753 85.149309-140.764977 90.381473-235.19158 263.618003-235.19158 367.193986 0 195.555861 165.712159 321.939293 422.24172 321.939293 256.530584 0 422.242743-126.384455 422.242743-321.939293C934.649508 536.326035 840.222905 363.062899 699.456904 272.707009L699.456904 272.707009zM512.406764 900.402007c-198.441585 0-359.308389-83.243913-359.308389-260.499989 0-101.256148 124.219139-304.465317 287.302425-353.689415-49.89334-23.915689-85.871763-67.701938-85.871763-98.653881 0-44.50768 70.716598-61.569264 157.876704-61.569264s157.824515 17.060561 157.824515 61.569264c0 30.951943-35.924187 74.738192-85.818551 98.653881 163.082262 49.224098 287.302425 252.433266 287.302425 353.689415C871.715153 817.158095 710.848349 900.402007 512.406764 900.402007L512.406764 900.402007zM612.039949 576.168462c17.421788 0 31.493272-13.762445 31.493272-30.720675s-14.071484-30.719652-31.493272-30.719652l-43.398416 0 48.244794-47.058782c12.266371-12.009522 12.266371-31.441083 0-43.450604-12.267395-11.983939-32.213679-11.983939-44.533262 0l-59.585073 58.192354-59.58405-58.192354c-12.267395-11.983939-32.162514-11.983939-44.533262 0-12.268418 12.009522-12.268418 31.442106 0 43.450604l48.243771 47.058782L412.774603 514.728134c-17.369599 0-31.493272 13.762445-31.493272 30.719652s14.123672 30.720675 31.493272 30.720675l68.139913 0 0 33.425274L409.940045 609.593735c-17.370623 0-31.493272 13.814634-31.493272 30.720675 0 17.009396 14.122649 30.720675 31.493272 30.720675l70.974471 0 0 58.707077c0 16.957207 14.123672 30.66951 31.493272 30.66951s31.492248-13.71128 31.492248-30.66951l0-58.707077 65.35652 0c17.318434 0 31.442106-13.710256 31.442106-30.720675 0-16.906042-14.123672-30.720675-31.442106-30.720675l-65.35652 0 0-33.425274L612.039949 576.168462 612.039949 576.168462zM612.039949 576.168462" p-id="4274"></path></svg>