<?xml version="1.0" standalone="no"?><!DOCTYPE svg PUBLIC "-//W3C//DTD SVG 1.1//EN" "http://www.w3.org/Graphics/SVG/1.1/DTD/svg11.dtd"><svg t="1601470117003" class="icon" viewBox="0 0 1024 1024" version="1.1" xmlns="http://www.w3.org/2000/svg" p-id="8085" xmlns:xlink="http://www.w3.org/1999/xlink" width="200" height="200"><defs><style type="text/css"></style></defs><path d="M694.826667 540.586667h-15.36l-1.066667-21.333334-1.28 21.333334h-3.84a210.133333 210.133333 0 0 1-187.52-187.733334 229.76 229.76 0 0 1 0-36.266666 208.426667 208.426667 0 0 1 85.333333-154.666667 21.333333 21.333333 0 0 1 23.04-1.28 21.333333 21.333333 0 0 1 10.666667 20.266667C594.133333 338.56 672 428.8 832 440.746667a21.333333 21.333333 0 0 1 13.653333 36.266666 209.28 209.28 0 0 1-150.826666 63.573334z m-132.48-311.68a165.76 165.76 0 0 0-34.346667 89.813333 227.626667 227.626667 0 0 0 0 29.44 167.466667 167.466667 0 0 0 149.333333 149.333333h5.76a166.186667 166.186667 0 0 0 92.8-21.333333c-133.12-25.6-207.573333-111.573333-213.546666-247.253333z" p-id="8086"></path><path d="M829.866667 483.413333h-1.706667C643.84 469.333333 549.546667 360.533333 563.2 176.64a21.333333 21.333333 0 0 1 8.746667-15.573333 209.28 209.28 0 0 1 331.733333 184.96 210.773333 210.773333 0 0 1-58.666667 130.986666 21.333333 21.333333 0 0 1-15.146666 6.4zM605.013333 190.08c-7.466667 149.333333 66.986667 234.666667 216.106667 249.813333A166.826667 166.826667 0 0 0 605.013333 190.08z" p-id="8087"></path><path d="M830.506667 483.413333h-0.64v-42.666666l0.64 42.666666zM259.84 870.613333a104.533333 104.533333 0 0 1-75.093333-29.44c-62.506667-60.8-9.6-155.093333-7.466667-158.933333a25.173333 25.173333 0 0 1 2.773333-3.84l308.266667-340.053333a21.333333 21.333333 0 0 1 37.12 14.08 145.706667 145.706667 0 0 0 147.84 147.413333 21.333333 21.333333 0 0 1 14.08 37.12L347.093333 845.44l-3.84 2.773333a190.293333 190.293333 0 0 1-83.413333 22.4zM213.333333 705.066667c-5.76 11.093333-34.133333 71.253333 1.066667 105.386666s94.72 7.253333 106.666667 1.493334l303.36-275.626667a183.253333 183.253333 0 0 1-135.466667-135.253333z" p-id="8088"></path><path d="M315.946667 733.226667a21.333333 21.333333 0 0 1-14.933334-6.186667 21.333333 21.333333 0 0 1 0-30.08L481.92 512A21.333333 21.333333 0 0 1 512 540.8l-181.333333 186.026667a21.333333 21.333333 0 0 1-14.72 6.4z" p-id="8089"></path></svg>