<?xml version="1.0" standalone="no"?><!DOCTYPE svg PUBLIC "-//W3C//DTD SVG 1.1//EN" "http://www.w3.org/Graphics/SVG/1.1/DTD/svg11.dtd"><svg t="1601470120480" class="icon" viewBox="0 0 1024 1024" version="1.1" xmlns="http://www.w3.org/2000/svg" p-id="8226" xmlns:xlink="http://www.w3.org/1999/xlink" width="200" height="200"><defs><style type="text/css"></style></defs><path d="M588.597527 812.857748s2.623594-11.977275 0-14.600869c-5.589395-5.589395-31.939401 0-31.939401 0l20.760611-32.623817 25.779659-40.494597s-26.350006-4.448702-33.536371 0c-4.106494 2.509524-10.722513 15.9697-17.110393 30.228361-6.616019 14.829007-12.88983 30.570569-15.741562 35.931826h-1.026623c-2.737663-5.475326-9.125543-21.216888-15.855631-36.159964-6.38788-14.258661-13.117968-27.604768-17.338532-30.114292-7.300434-4.448702-34.106717 0-34.106717 0l25.665589 40.494597 20.646542 32.623816s-26.121867-5.589395-31.711263 0c-2.623594 2.623594 0 14.600869 0 14.600869h38.441351v12.775761s-31.597193-6.844157-38.441351 0c-2.623594 2.623594 0 14.600869 0 14.600868h38.441351s-4.79091 24.410828 0 30.342431c4.562772 5.589395 23.726412 5.133118 28.74546 0 5.361257-5.361257 0-30.342431 0-30.342431H588.597527s2.623594-11.977275 0-14.600868c-6.730088-6.730088-38.213212 0-38.213212 0v-12.775761H588.597527zM666.506851 496.999889c-3.764287 0-7.528573-1.254762-10.608444-3.764287L380.078868 273.195945 250.952434 420.573466c-6.045672 6.844157-16.425977 7.756712-23.498273 2.053247L182.510861 386.808956c-6.045672-4.79091-9.809959-11.863206-10.494374-19.391779-0.684416-7.528573 1.825109-15.171215 6.844157-20.87468l164.373844-187.758048c10.038097-11.520998 27.946976-13.003899 39.924251-3.536148l324.527125 258.937284c6.045672 4.79091 9.809959 11.863206 10.494374 19.391779 0.684416 7.528573-1.825109 15.171215-6.844157 20.87468l-32.05347 36.502172c-3.19394 3.992425-7.98485 6.045672-12.77576 6.045673zM379.508522 237.15005c6.38788 0 12.77576 2.053247 18.137017 6.273811l266.922134 212.967361 16.882255-19.27771-315.74379-251.979057-156.845271 178.974713 27.034421 21.559095 121.597861-138.822323c5.703464-6.38788 13.802384-9.695889 22.015373-9.69589z" p-id="8227"></path><path d="M470.992091 688.864431c-3.878356 0-7.642642-1.254762-10.722513-3.764286l-263.500056-210.229698c-6.045672-4.79091-9.809959-11.863206-10.494374-19.391779-0.684416-7.528573 1.825109-15.171215 6.844157-20.87468l164.373844-187.758048c10.038097-11.520998 27.946976-13.003899 39.924251-3.536148l324.527125 258.937284c6.045672 4.79091 9.809959 11.863206 10.494374 19.391779 0.684416 7.528573-1.825109 15.171215-6.844157 20.87468L605.479782 679.967027c-4.334633 4.904979-11.064721 6.958227-17.338532 5.247187-15.171215-4.106494-32.966024-6.38788-51.445249-6.38788-22.129442 0-43.460399 3.19394-60.000446 9.011474-1.825109 0.684416-3.764287 1.026624-5.703464 1.026623zM223.233597 452.170658L474.528239 652.704467c18.365155-5.247187 39.696112-7.98485 62.053693-7.98485 17.452601 0 34.448925 1.711039 49.848279 5.019048l109.164308-124.677732-315.515651-251.864988-156.845271 178.974713z m477.49404 76.882701z" p-id="8228"></path></svg>