<?xml version="1.0" standalone="no"?><!DOCTYPE svg PUBLIC "-//W3C//DTD SVG 1.1//EN" "http://www.w3.org/Graphics/SVG/1.1/DTD/svg11.dtd"><svg t="1601470102530" class="icon" viewBox="0 0 1024 1024" version="1.1" xmlns="http://www.w3.org/2000/svg" p-id="7523" xmlns:xlink="http://www.w3.org/1999/xlink" width="200" height="200"><defs><style type="text/css"></style></defs><path d="M506.311111 187.733333c-182.226489 0-329.955556 147.729067-329.955556 329.955556s147.729067 329.955556 329.955556 329.955556 329.955556-147.729067 329.955556-329.955556S688.5376 187.733333 506.311111 187.733333zM506.311111 793.440711c-152.291556 0-275.751822-123.460267-275.751822-275.751822S354.019556 241.937067 506.311111 241.937067 782.062933 365.397333 782.062933 517.688889 658.602667 793.440711 506.311111 793.440711zM630.852267 509.110044c10.569956-14.916267 16.873244-33.5872 16.873244-53.873778 0-48.810667-36.408889-88.382578-81.3056-88.382578-3.595378 0-7.964444 0-12.959289 0l0-68.346311c0-3.8912-3.185778-7.0656-7.0656-7.0656L522.808889 291.441778c-3.8912 0-7.0656 3.185778-7.0656 7.0656l0 68.346311-37.705956 0 0-68.346311c0-3.8912-3.185778-7.0656-7.0656-7.0656l-23.563378 0c-3.8912 0-7.0656 3.185778-7.0656 7.0656l0 68.346311-77.778489 0c-3.902578 0-7.0656 3.163022-7.0656 7.0656l0 23.802311c0 3.640889 2.719289 6.792533 6.3488 7.122489 26.555733 2.434844 40.789333 20.252444 40.789333 42.143289l0 146.1248c0 19.694933-10.160356 35.328-32.369778 37.467022-3.151644 0.3072-5.768533 2.548622-6.360178 5.666133l-4.5056 24.029867c-0.807822 4.289422 2.491733 8.260267 6.8608 8.260267L440.32 668.535467l0 68.346311c0 3.8912 3.185778 7.0656 7.0656 7.0656l23.563378 0c3.8912 0 7.0656-3.185778 7.0656-7.0656l0-68.346311 37.705956 0 0 68.346311c0 3.8912 3.185778 7.0656 7.0656 7.0656l23.563378 0c3.8912 0 7.0656-3.185778 7.0656-7.0656l0-68.346311c13.357511 0 24.450844 0 31.812267 0 44.908089 0 81.3056-39.037156 81.3056-87.199289C666.578489 551.276089 652.413156 524.788622 630.852267 509.110044zM478.025956 423.412622c0 0 36.260978 0 57.742222 0 21.481244 0 38.889244 17.408 38.889244 38.889244 0 21.481244-17.408 38.889244-38.889244 38.889244-21.481244 0-57.742222 0-57.742222 0L478.025956 423.412622zM554.621156 614.320356c-21.481244 0-76.5952 0-76.5952 0l0-77.778489c0 0 55.113956 0 76.5952 0 21.481244 0 38.889244 17.408 38.889244 38.889244C593.5104 596.912356 576.1024 614.320356 554.621156 614.320356z" p-id="7524"></path></svg>