<?xml version="1.0" standalone="no"?><!DOCTYPE svg PUBLIC "-//W3C//DTD SVG 1.1//EN" "http://www.w3.org/Graphics/SVG/1.1/DTD/svg11.dtd"><svg t="1601470113880" class="icon" viewBox="0 0 1024 1024" version="1.1" xmlns="http://www.w3.org/2000/svg" p-id="7946" xmlns:xlink="http://www.w3.org/1999/xlink" width="200" height="200"><defs><style type="text/css"></style></defs><path d="M834.12 442.46H774A253.83 253.83 0 0 0 520.56 203.4a259.21 259.21 0 0 0-31 1.86l-11.19-137H314.41v40H441.5l8.57 105a254.16 254.16 0 0 0-182.94 229.2h-70.52v40H269l39.25 407.23a54.71 54.71 0 0 0 54.64 53.58H678.2a54.71 54.71 0 0 0 54.64-53.58l39.26-407.23h62zM520.56 243.4a213.87 213.87 0 0 1 213.36 199.06h-225l-16.11-197.28a216.51 216.51 0 0 1 27.75-1.78zM369.33 306a213 213 0 0 1 84.08-51.94l15.38 188.36H307.21A212.27 212.27 0 0 1 369.33 306zM693 886.7l-0.1 1v1a14.66 14.66 0 0 1-14.65 14.65H362.92a14.66 14.66 0 0 1-14.65-14.65v-1l-39.06-405.2h162.85l16.37 200.4 39.87-3.26-16.11-197.18h219.72z" p-id="7947"></path><path d="M412.36 774.27a62 62 0 1 0 62 62 62.07 62.07 0 0 0-62-62z m0 84a22 22 0 1 1 22-22 22 22 0 0 1-22 22zM502.36 809.27a62 62 0 1 0 62-62 62.07 62.07 0 0 0-62 62z m62-22a22 22 0 1 1-22 22 22 22 0 0 1 22-22z" p-id="7948"></path></svg>