<?xml version="1.0" standalone="no"?><!DOCTYPE svg PUBLIC "-//W3C//DTD SVG 1.1//EN" "http://www.w3.org/Graphics/SVG/1.1/DTD/svg11.dtd"><svg t="1601470110512" class="icon" viewBox="0 0 1024 1024" version="1.1" xmlns="http://www.w3.org/2000/svg" p-id="7799" xmlns:xlink="http://www.w3.org/1999/xlink" width="200" height="200"><defs><style type="text/css"></style></defs><path d="M749.391673 179.94072c-5.058574-6.503881-12.285109-10.839802-20.956952-10.839803H213.905434c-7.949188 0-15.175723 3.613267-20.234298 10.117149L83.105152 326.639379c-6.503881 8.671842-6.503881 20.234298-0.722654 28.90614l365.662668 549.216655c4.335921 7.226535 12.285109 11.562456 20.956951 11.562455h2.167961c2.16796 0 4.335921 0 6.503881-0.722653 8.671842-2.16796 15.175723-9.394495 17.343684-17.343684l358.436133-541.267466c5.781228-8.671842 5.781228-20.234298-0.722654-28.90614l-103.339449-148.143966zM715.426958 219.686662l67.929429 96.112915H637.380381l-61.425547-96.112915H715.426958z m-199.452364 0l61.425547 96.112915H364.217361l61.425547-96.112915h90.331686z m-289.784051 0h138.749471L303.514467 315.799577H154.647848l71.542695-96.112915zM150.311927 366.385321h148.866619l106.952717 383.006352-255.819336-383.006352zM470.447424 794.918843L351.209598 366.385321h238.475653L470.447424 794.918843z m67.929429-54.921666l104.062103-374.334509h143.808045l-247.870148 374.334509z" fill="" p-id="7800"></path><path d="M810.094566 143.808045m-27.460833 0a27.460833 27.460833 0 1 0 54.921666 0 27.460833 27.460833 0 1 0-54.921666 0Z" fill="" p-id="7801"></path><path d="M865.738885 221.854622m-27.460833 0a27.460833 27.460833 0 1 0 54.921666 0 27.460833 27.460833 0 1 0-54.921666 0Z" fill="" p-id="7802"></path><path d="M921.383204 300.623853m-27.460833 0a27.460833 27.460833 0 1 0 54.921666 0 27.460833 27.460833 0 1 0-54.921666 0Z" fill="" p-id="7803"></path></svg>